<?xml version="1.0" encoding="utf-8"?>
<!-- Generator: Adobe Illustrator 26.5.0, SVG Export Plug-In . SVG Version: 6.00 Build 0)  -->
<svg version="1.1" id="Layer_1" xmlns="http://www.w3.org/2000/svg" xmlns:xlink="http://www.w3.org/1999/xlink" x="0px" y="0px"
	 viewBox="0 0 256 256" style="enable-background:new 0 0 256 256;" xml:space="preserve">
<style type="text/css">
	.st0{fill:#FFFFFF;}
	.st1{opacity:0.44;}
</style>
<g>
	<path class="st0" d="M73.7,25.7c-0.1,0.9,0.9,0.4,1.6,0.4c-0.1-0.6-1-0.4-1.2-0.4c0.1-0.1,0.1-0.3,0.1-0.4c0.7,0.1,1.3,0.4,1.9,0.6
		c0,0.3,0.1,0.6,0,0.9c0.6,0,1.3-0.6,1.6-0.3c-0.1,0.6-1,0.1-0.9,0.7c0,0.3,0.9,0.1,0.9-0.3c0.6,0.3,0.9,0.3,1.2,0.3
		c-0.1,0.3-0.7,0.1-1,0.1c0.3,0.3,0.1,0.9,0.4,1c0,0.1,0,0.3,0,0.4c-0.1,0.1-0.3,0.1-0.4,0.3c0.3,0,0.4-0.1,0.4-0.3
		c0.4,0,0.7-0.3,1.2-0.6c0.3,0.3,1.2,0.7,0.7,1.3c0.7-0.1,0.9,0.7,1,1.2c1.2,1.3,1.2,2.9,0.3,5.3c0.4,1.3-0.9,4.1-2,6.4
		c-1.3,2.8-2.6,5-3.2,7.3c-0.3-0.6,0.4-2.6,1-4.1c-1,0.6-1.2,3.5-2.6,3.9C74.4,49.8,74,50,74,50.4c-1,0-1.2,1.2-1.9,1.8
		c-0.9,0.1-1.5,0.6-2.5,0.9c-1-0.3-2.3,0.4-3.2-0.1c-4.1,1.5-5.7-1.5-5.6-4.4c-0.1,0-0.1,0.1-0.3,0.3c0-0.6,0-1.3,0.1-2
		c0.6,0,0.7-0.9,1.5-0.7c-0.1,0.4-0.4,0.4-0.3,0.7c0.4,0.1,0.4-0.3,0.9-0.1c0,0.3-0.4,0.7-0.1,0.7c0.9-0.9,1.8-2.8,2-4.1
		c0.9-1.5,2.3-4.1,2-6c-1.8,1.2-3.4,2.6-4.8,4.1c-1.8-0.1-2,1.9-3.7,2c0.1,0.1,0.1,0.4,0,0.7c-0.1,0.3-0.6,0.3-0.9,0.4
		c-1,2.2-3.8,3.2-5,5.7c-1.5,0.6-1.8,2.6-3.4,3.1c0,0.1,0.3,0.3,0,0.6c-3.7,4.1-6.9,8.6-10.2,12.9c-0.1,0.4,0.3,0.3,0,0.7
		c-2.3,2.5-3.9,6-6.1,9.4c-0.1,0.3,0.4,0.1,0.1,0.6c-1,0.4-1.2,1.9-2,2.6c-0.1,0.3-0.1,0.6,0.1,0.6c-2.2,3.1-3.4,6.7-5,9.9
		c-1,1.9-1,3.1-2,4.4c-0.9,2.5-1.3,5.1-2.5,7.5c-0.1,1.3-0.1,3.8-0.4,5.1c0.1,0.4,0.6,0.9,0,1.6c0,1.3,0.3,2.6,0.4,3.8
		c1.3,2.2,5.7,0.6,8.5-0.7c0.1,0.1,0,0.4,0,0.7c1.3-0.4,2.5-0.9,3.4-1.9c2.3,0,4.1-2.3,6.3-3.5c0.3,0,0,0.4,0.4,0.3
		c0.4-0.3,0-0.3,0.1-0.9c3.9-2.2,7-5.3,10.5-7.7c0.3,0.4-0.7,1-0.6,1.6c0.9,0.1,0.4-1.3,1.2-1.3c-0.1,0.4,0.3,0.3,0.4,0.1
		c0-0.1-0.3-0.1-0.4-0.1c0.1-0.3-0.1-0.3-0.1-0.7c0.9-0.1,1-1.8,2.2-1.2c-0.6,0.3-0.9,0.7-1.5,1.2c0.1,0.1,0.4,0.3,0.6,0.4
		c-0.3,0.6-0.6,0.7-1.5,1.3c0.9,0.3,1.5-1,2.2-1.3c0-0.3-0.3-0.3-0.6-0.3c1.6-1.6,2.9-2.9,4.4-4.7c0.1-0.1,0.3-0.3,0.3-0.6
		c0.3,0,0.1,0.4,0.1,0.6c1-0.3,1.5-1.5,2.5-1.9c-1.2,1.9-3.4,2.9-4.7,4.8c-0.1,0-0.1,0-0.1,0.1c0.1,0,0.1,0,0.1-0.1
		c1.6-0.7,2.5-2,3.7-2.9c0.6,0,0,0.1,0,0.6c0.7,0,0.9-0.7,0.6-1.2c0.6-0.1,0.3,0.3,0.3,0.6c0.4-0.1,0.7-1.5,0.9-1.6
		c0.4-0.1,0.7-0.4,1.2-0.7c-0.1,0.1-0.1,0.4-0.1,0.6c0.4-0.1,0.7-0.4,1-1c1,0.4,0.7-1.6,1.8-1.8c-0.1-0.9-0.7,0.3-1,0
		c-0.6,0.4-1,1.5-1.6,1.2c1.2-1,2-2,3.2-3.1c-0.4,0.6-0.3,0.9-0.7,1.3c0.3,0.4,0.4-0.1,0.9-0.1c-0.1,0.3-0.4,0.4-0.6,0.9
		c0.9-0.4,1.6-0.9,1.8-2.2c-0.3,0-0.3,0.6-0.7,0.4c0-0.1,0-0.3-0.3-0.3c0.6-0.7,1.3-1.5,2.2-1.9c0-0.1,0-0.4,0-0.6
		c3.9-3.1,7.6-6.4,11.1-10.1c2.3-1.8,4.5-3.8,6.7-5.8c2.2-1.8,4.5-3.5,6.3-6c1.9-1.2,3.2-2.9,5.3-3.9c0.7-1.6,2.9-2.6,4.2-3.9
		c-1.8,2.8-3.8,4.7-5.1,6.7c-1.3,1.2-2.6,2.3-3.7,4.1c-0.9,0.3-2.2,1.8-2.9,2.9c-1.6,0.3-0.9,1.9-2.3,2.8c0.1-0.3,0-0.4,0-0.6
		c-0.3,0-1,1-0.4,0.9c-0.4,0.7-1.2,1.2-1.5,1.9c-0.3,0-0.3-0.1-0.6-0.1c-0.4,0.1,0.1,0.4-0.1,0.7c-1.8,1.3-3.1,3.4-5.1,4.5
		c-0.1,0.4,0.1,0.4-0.3,0.7c-0.3,0-0.1-0.1-0.3-0.3c-0.4,0.4-0.6,1-0.9,1.5c-0.3,0-0.4,0-0.7,0c-0.1,0.4,0.3,0.4,0,0.7
		c-1,0.4-1.5,1-2,1.8c-1.2,0.3-1.8,1.6-2.5,2.3c-0.3,0.6,0.1,0.6-0.3,1c0.7-0.1,0.9-1,1.5-0.9c0.1-0.1,0.1-0.4,0-0.4
		c0.1-0.4,0.6,0.3,0.7-0.1c-0.3-0.3,0.4-1.2,0.3-1.6c0.3,0.6,0.6,1,0.7,1.5c-1.2,0.4-1.8,2.6-3.1,3.7c0.4,0.7-0.3,1.3-0.7,2.3
		c0.9,0.6-0.6,1.9-1.3,3.2c0-0.1,0.1-0.3,0-0.3c-0.6,0.3-0.7,0.9-1,1.3c-2,0-2.2,2.2-3.5,2.9c0.3-0.3,0.3-0.7,0.4-1
		c-0.6,0.1-0.6,0.7-1.2,1c0.3,1-1.9,2.2-2.8,3.2c-0.1,0,0-0.3-0.1-0.4c-0.4,0.7-1,1-1.2,1.5c-1.6,0-2,2.9-3.7,2.8
		c0.3-0.1,0.4-0.4,0.6-0.9c-1.2,0-0.4,1.2-0.4,1.5c-0.3,0.1-0.6,0.3-1.2,0.3c-0.1,0.6-0.6,0.6-0.6,1.2c-2,0.3-2.9,3.4-4.8,3.1
		c0,0.4-0.4,0.6-0.4,1c-1.9,0.6-2,2.6-4.2,2.9c-0.7,0.6-1.2,1.5-2.2,1.5c0.1-0.1,0.3-0.3,0.1-0.3c-0.1,0-0.6,0.4-0.1,0.3
		c0.1,0.4-0.9,0.3-0.4,0.4c0,0.1-0.3,0.1-0.3-0.1c-0.4,0.3-1.2,0.6-1.3,1.3c-0.4,0.1-0.1-0.3-0.1-0.6c-0.3,0.1-0.1,0.7-0.3,1
		c-0.4-0.3-0.7,0.3-1.3,0.4c-0.1,0-0.1-0.1,0.1-0.3c0.1,0,0.1,0,0.1-0.1c0.1,0,0.3,0,0.3-0.1c-0.1,0-0.3,0-0.3,0.1
		c-0.1,0-0.1,0-0.1,0.1c-1,0.9-2.8,1.2-2.8,2.3c-0.3,0.4-1,0.3-1.2,0.7c-0.6,0-0.7-0.3-1.5-0.1c-0.4,0.6,0,1,0.3,0.6
		c0.6,0.4-0.4,0.6-0.9,0.4c-0.1-0.4,0.6-0.7,0.3-1c-0.4,0-0.6,0.3-0.9,0.9c-0.6-0.1-0.3-0.3-1-0.3c-0.3,0.1-0.1,0.7-0.7,0.6
		c-0.3,0.4,0,0.6,0,0.9c-1.6-0.3-2.6,1.6-4.4,0.6c-2.8,1.6-5.6,0.1-8.3-0.1c-0.1-0.1-0.1-0.3,0.3-0.6c-1.3,0.1-1.8-1-2.2-1.5
		c-0.7-0.4-1.2-0.1-1.5-0.9c-0.1-0.9-1.3-1-1.6-1.5c0.1-0.1,0.1-0.4,0-0.6c-0.4-1.2-1.8-1.9-2.2-2.9c0-0.3,0.1-0.3,0.1-0.6
		c0-0.4-0.4,0.4-0.7,0c0-0.1-0.1-0.1,0.1-0.3c0.3,0,0.4-0.1,0.4-0.3c0-0.3,0-0.7-0.4-0.7c-0.4,0.3,0.1,0.6,0,1
		c-0.4-0.1-0.4-0.6-0.6-1c0.3,0,0.3,0,0.4-0.1c0-0.9-0.6-1.5-0.4-2.6c0.3,0.1,0.4,0.1,0.6,0c0-0.6-0.9,0.1-0.7-0.4
		c0.7,0.1,0.6-0.9,1-1c0-1.6-0.7-2.6-0.9-4.1c0.4,0.1,0.6-0.1,0.7-0.3c-0.3-0.6,0.4-2.2-0.9-2.2c-0.3,0.6,0.4,1-0.1,1.6
		c-0.3-0.3,0.3-0.6-0.3-0.9c-0.4,1,0,2.8-0.7,3.9c-1.3-1.6,0.1-3.7,0.4-6.6c-0.1,0-0.4,0-0.4,0.3c0-0.7,1.5-1.9,0.7-2.8
		c0.4-0.1,0.4-0.6,0.3-0.9c0.3,0,0.3-0.1,0.6-0.3c-0.4-0.9,0.1-1.6,0.7-2.5c0.1-0.1,0-0.1-0.3-0.1c2.2-2,2.8-5.4,3.8-8.2
		c0.1-0.4,0.4-0.3,0.7-0.4c-0.3-0.7,0.6-1.2,1-1.9c0-0.1-0.4-0.1-0.4,0c-0.4-0.1,0.3-0.6,0.4-0.7c0-1.9,2.2-3.2,2.3-5.4
		c0.4,0.1,0.3-0.6,0.7-0.6c1.5-3.5,3.7-6.6,5.1-10.4c1-0.7,1.5-1.9,2-3.1c2.9-0.3,1.8-4.4,4.7-5c1.3-1.3,1.9-2.6,2-4.5
		c0.1,0,0.1-0.1,0.3-0.3c0.3,0,0.7,0,1,0c-0.4,0.3-0.4,1.3-1.2,1.2c0,0.3-0.1,0.7-0.3,1c1-0.9,2.5-2.5,2.3-3.4
		c0.6-0.4,1.2-0.6,1.5-1.3c-0.6,0.1-0.7,0-1.3,0.6c-0.4-0.1,0.6-0.9,0.1-1.3c0.3,0,0.3-0.1,0.6-0.1c-0.1-0.7,0.9-1.6,1.2-2.5
		c0.3,0,0.3,0.1,0.6,0.1c1.5-1.3,2.8-2.9,4.1-4.5c0.1,0.1,0.6,0.1,0.7,0c-0.1-0.4,0-0.7,0-1c-0.4,0-1.2,0.4-1.3,0.3
		c1.8-2.3,3.9-2.8,5.1-5.4c0.9-0.1,2-1,1.8-1.8c0.3-0.4,0.6,0,1.2-0.1c0.4-0.6,1.2-1,1.6-1.9c0.4,0,0.7-0.3,1.2-0.3
		c0.7-1,1.6-1.2,2.3-1.6C56,32.2,56,32,56,31.7c1,0,1.5-0.9,2.3-0.9c0.1-0.3,0-0.3,0-0.6c0.9,0.3,0.9-0.1,1.6-0.4
		c-0.4-0.6,1.3-1.6,1.9-1.3c0.4-0.1,0.4-0.4,0.4-0.7c0.4-0.1,0.3,0.3,0.6,0.3c0.3-0.3,0.4-0.6,0.7-0.9c0.6,0,1,0.1,1.6-0.7
		c0.4-0.1-0.1,0.4,0.3,0.3c0.6-0.3,0-0.6-0.3-0.7c0.6-0.6,1.3-0.6,2-1.3c0.1,0.4-0.7,0.6-1,1c0.6,0.7,1.3-0.9,2.2-0.9
		c0.1-0.6-0.4,0-0.7-0.1c0.1-0.6,1-0.4,1.6-0.6c0.4,0.1,0,0.9,0.7,0.7c-0.3,0.4-0.6,0-0.6-0.1c-0.1,0.1-0.3,0.4-0.6,0.7
		c0.3,0.9,2-0.9,1.8,0.4c0.6-0.1,0.1-0.4,0.4-1c0.9,0.6,1.3,0.9,2.8,0.4c0.3-0.4,0.1-0.6,0.1-0.9c0.4,0,0.6,0.3,0.7,0.4
		c-0.1,0.3-0.4,0.1-0.4,0.4C74,25.3,73.8,25.4,73.7,25.7z M10.1,108.4c-0.3,1-0.3,1.6-0.7,2.2c0-0.7,0.3-1.3,0-2.3
		c0.3,0,0.3-0.1,0.3-0.3C10.1,108,9.5,108.6,10.1,108.4z M10.1,111.1c-0.1-0.1-0.4,0-0.4,0.4c-0.6-0.1,0.1-0.7,0.1-1.2
		C10.3,110.3,10.3,110.8,10.1,111.1z M10,105.1c0.1,0,0.1,0,0.3,0c-0.3,0.1-0.3,0.1-0.3,0.3c-0.1,0-0.1,0-0.3,0
		C9.7,105.2,9.7,105.2,10,105.1z M10.1,112.4c-0.1,0.4-0.4,0-0.3-0.3C10,112.1,10,112.4,10.1,112.4z M9.8,112.1 M10.1,110.2
		c0.4-0.4,0.6-0.9,1-1C11,109.6,10.9,110,10.1,110.2z M10.4,108 M10.4,113.3c0-0.4,0.7,0.3,0.7,0.7
		C10.9,113.7,10.4,113.6,10.4,113.3z M10.7,105.2 M10.9,110.2c0.4,0.1-0.1,0.4,0.1,0.6C10.6,110.9,10.7,110.3,10.9,110.2z
		 M10.9,97.9 M10.9,115.7 M11.4,108.7c0,0.1,0,0.1,0,0.3c0,0-0.1,0-0.1,0.1h-0.1C11.1,109,11.1,108.7,11.4,108.7z M11.6,100.7
		c-0.4,0.3-0.6,1.3-0.1,1.5C11.9,101.7,12.2,100.8,11.6,100.7z M11.3,102.4 M12.2,106.5c0.4-0.6-0.4-0.7-0.7-0.3
		C11.6,106.4,11.7,106.7,12.2,106.5z M11.9,96 M12.5,96.9c0.3,0,0.7-0.1,0.4,0.3c-0.1,0-0.4,0-0.6,0c0.1,0.6-0.4,0.6-0.4,1.3
		c0.7-0.3,0.3,0.1,0.6,0.4c0.7-1,1-2,0.9-2.8c-0.1,0.1-0.3,0.4-0.6,0.6C12.6,96.7,12.5,96.7,12.5,96.9z M12,93.4
		c0-0.4,0-0.6,0.4-0.6C12.5,93.1,12.5,93.4,12,93.4z M12,111.5 M12.2,100.7c0.1,0.3-0.3,0.9,0,0.9C12.3,101.4,12.8,100.5,12.2,100.7
		z M13.2,98.9c-0.9,0-1.5,1.3-0.9,1.6C13,100.1,12.9,99.8,13.2,98.9z M12.2,93.8 M13.2,94.1c-0.1,0-0.3,0-0.4,0
		c-0.3,0.3,0,0.6-0.3,1C13,95.1,13.2,94.6,13.2,94.1z M13.6,96c-0.3-0.7,0.3-0.6,0.4-1.3c-0.1,0,0-0.3-0.3-0.3
		c-0.4,0.6-1.2,1.2-1,1.8C13.2,96.3,13.3,96,13.6,96z M12.8,110 M13,115.9c0-0.1,0-0.4-0.3-0.4c0,0.1,0,0.1,0,0.3
		C12.9,115.7,12.9,115.9,13,115.9z M12.9,93.1 M13.2,101.6 M13.6,99.7c-0.1,0.3-0.6,1,0,0.9C13.9,100.3,13.8,100,13.6,99.7z
		 M13.5,120.4c-0.1,0,0.3-0.4,0-0.4C13.6,119.5,13.9,120.3,13.5,120.4z M13.5,99.5 M14.4,94.1c0-0.1,0-0.1,0-0.3
		c-0.1,0-0.1-0.1-0.3-0.1c0,0.3-0.4,0.1-0.4,0.4C13.9,94.1,14.1,94.1,14.4,94.1z M13.9,99.1c0-0.3-0.1-1.2,0.4-1.2
		c0-0.4,0.3-1.2,0-1.3c-0.4,0.6-0.3,0.4-0.6,0.9C14.4,97.6,13.2,98.8,13.9,99.1z M14.1,93.5c0.1,0,0.3,0,0.4-0.1
		C14.4,93.4,14.2,93.4,14.1,93.5z M16.7,88.9c0.4,0.3-0.1,0.9-0.4,0.9c0.1-0.3,0.1-0.4-0.1-0.4c-0.4,0.6,0.4,0.6-0.1,1.6
		c0.3,0,0.3-0.1,0.6-0.1c-0.3,0.7-0.6,1.9-1.6,2.8c0.4,0.6-0.6,1.8-0.3,2.2c0.3-0.6,1.2-0.9,0.7-1.5c0.4,0.1,0.3-0.3,0.6-0.4
		c0-1.8,2-4.1,3.1-5.7c-0.1,0-0.6,0.1-0.6-0.1c0.1-0.3,0.6-0.3,0.7-0.4c0.3-1,1-2.2,1.9-3.2c-0.9-1.2,2.2-2.9,1.6-4.4
		c2.8-4.1,4.7-8.8,7.2-11.7c0.1-1.3,1.5-2.6,2.6-3.9c-0.4-0.9,0.4-1.5,0.9-2c-0.3,0-0.4,0-0.7,0c0.1,0.4-0.3,0.6-0.6,0.6
		c-0.3-0.3-0.1-0.3,0-0.9c-1,0.6-1.3,1.6-1.9,2.3c0.6,0.4,1.5-1.3,2-1c-0.7,0.4-1,1.6-2.5,1.6c-1.2,1.8-2.6,4.2-3.8,5.7
		c1.3-2.6,2.9-4.5,3.8-6.7c-0.3,0-0.4,0-0.7,0c-0.4,0.6-0.9,1.9-1.3,2.6c0,0.1-0.6,0.3-0.6,0.3c-0.3,0.7,0.3,0.1-0.4,0.9
		c-1,0.9-1,2.2-1.8,3.2L24.4,71c-0.4,0.9-0.3,1.6-1.3,2.2c0.3,1.3-1.6,3.4-1.9,4.5c-0.1-0.1-0.3-0.1-0.6,0c-0.1,0.3-0.3,0.7-0.4,1
		c0.4,0.3,0.7-0.1,0.7,0.3c0,0.3-0.4,0.3-0.6,0.7c0.7-0.1,0.6-0.3,1-0.7c0,1.8-1.8,2.5-3.2,3.2c-0.3,2.3-1.8,4.1-2.2,6.3
		c-0.6,0.1-0.3-0.3-0.7,0c-0.1,0.1-0.1,0.4-0.1,0.6c0.6-0.1,0.6-0.3,1,0c0.6-0.6,0.7-1.6,1-2C17.3,87.5,17.1,88.4,16.7,88.9
		C16.1,88.7,16.7,89.3,16.7,88.9z M14.7,92.7c0.1,0,0.1,0.3,0.3,0C14.9,92.5,14.7,92.5,14.7,92.7z M15.5,89.3c-0.4,1-1.2,2-0.6,2.6
		C15.2,90.9,15.7,90.2,15.5,89.3z M15.7,103 M16.3,84.3c-0.3-0.1,0-0.3,0-0.4c0-0.1,0-0.3-0.1-0.3C16.8,83.2,17,84.2,16.3,84.3z
		 M16.1,120.6 M17,90.8c0,0.3-0.1,0-0.3,0C16.7,90.6,17,90.6,17,90.8z M17.1,83c-0.3,0-0.4-0.6-0.1-0.9C17.7,82,17.3,82.7,17.1,83z
		 M16.8,119.4 M17.9,121.6c-0.1-0.4,0.3-0.3,0.3-0.7c-0.6,0.1-0.4-0.3-1-0.1c-0.1,0.3-0.3,0.3-0.3,0.6
		C17.4,121.1,17.4,121.6,17.9,121.6z M17,87c0.4-0.3,0.3-1.2,0.9-1.2C17.6,86.2,17.6,87,17,87z M17.1,81.7 M17.6,89.4
		c-0.1,0-0.1,0-0.3,0.1c-0.1,0,0-0.3,0-0.4C17.6,89.1,17.6,89.3,17.6,89.4z M18.3,88.1c-0.1,0.4-0.6,0.7-1,0.7c0-0.1,0.1-0.4,0-0.4
		c0.1-0.3,0.6-0.3,0.4,0C18,88.3,18,88.1,18.3,88.1z M17.6,95.6 M18.3,85.1c-0.3,0-0.3,0.1-0.6,0.3c-0.3-0.3,0.6-0.4,0.6-0.9
		C18.6,84.5,18.5,84.8,18.3,85.1z M18,80.8c-0.1,0-0.1,0-0.3,0c0-0.1,0-0.1,0-0.3c0.1,0,0.1,0,0.1-0.1C18.2,80.5,18.2,80.7,18,80.8z
		 M17.7,98.4c0.1,0,0.3,0,0.3-0.1C17.9,98.2,17.7,98.2,17.7,98.4z M18,104.3c0.1,0,0.3,0,0.3-0.1C18.2,104.2,18,104.2,18,104.3z
		 M18,107.3c0.4,0,0.7,0,0.7-0.3c0.1,0,0.1,0,0.3,0c0.1-0.1,0.1-0.1,0.3-0.3c-0.3,0-0.4,0.1-0.6,0.3C18.5,107,18,107,18,107.3z
		 M19.2,94.1c0-0.3,0.3-0.7,0.1-0.9c-0.6,0-1.2,0.7-0.7,1C18.9,94.3,18.9,94.1,19.2,94.1z M18.9,108.3
		C18.5,108.9,19.3,108.3,18.9,108.3c0-0.1-0.1-0.1-0.3-0.1c0-0.1-0.1,0,0,0C18.6,108.3,18.7,108.3,18.9,108.3z M18.6,82.9
		 M18.6,106.5 M18.7,89.3 M19.3,91c-0.4,0-0.4,0.3-0.6,0.6C19.2,91.6,19.2,91.5,19.3,91z M18.9,102.9 M18.9,105.7 M18.9,122.3
		 M19.2,101 M19.6,109.5c-0.3,0-0.3,0.1-0.4,0.3C19.5,109.8,19.6,109.6,19.6,109.5z M19.9,81.1c0-0.1,0-0.3,0-0.4
		c-0.3,0-0.3,0.1-0.6,0.1C19,81.3,19.6,81.1,19.9,81.1z M19.6,77.6 M19.8,99.2c0,0.1-0.1,0.3-0.1,0.4C20.1,100,20.2,99.1,19.8,99.2z
		 M19.9,108.4c0.1-0.1,0.1-0.1,0.1-0.3c-0.1,0-0.1,0-0.3,0c0,0.1,0,0.1-0.1,0.3C19.8,108.4,19.8,108.4,19.9,108.4z M20.1,90.8
		c0.1,0.6-0.3,0.9-0.3,1.3C20.2,91.8,20.5,91,20.1,90.8z M19.8,107.1c0,0.3,0.1,0.4,0.4,0.4C20.2,107.3,20.1,107.1,19.8,107.1z
		 M19.9,82.4 M20.1,110.8c-0.1,0.3,0,0.4,0.1,0.4C20.4,110.9,20.2,110.9,20.1,110.8z M20.2,87.1c0.1,0.3-0.3,0.7,0,0.7
		C20.4,87.5,20.8,87.1,20.2,87.1z M20.5,91.5c0.1,0,0.3,0,0.3-0.1C20.6,91.3,20.5,91.3,20.5,91.5z M20.8,106c0-0.1,0-0.1,0-0.3
		c-0.1,0-0.1,0-0.3,0c0,0.1,0,0.1,0,0.3C20.6,106,20.6,106,20.8,106z M20.6,88.6 M21.1,88.9c0,0.3-0.3,0.7,0.3,0.6
		C21.4,89.1,21.4,88.9,21.1,88.9z M21.1,97.6 M21.4,78.3c0.1-0.1,0.1-0.3,0.4-0.3C21.8,78.2,21.7,78.3,21.4,78.3z M21.4,78.3
		 M21.5,73.2 M21.5,78.8 M21.5,100.4 M21.7,123.2c0.3,0.3,1,0.3,1.9,0.3C23.7,122.9,22.4,123,21.7,123.2z M21.8,78
		c0.3-0.3,0.3-0.7,0.7-0.9C22.3,77.3,22.5,78.3,21.8,78z M22.3,99.2c0-0.1,0-0.4,0-0.6c-0.1,0-0.1,0-0.3,0c0,0.1,0,0.4,0,0.6
		C22.1,99.2,22.1,99.2,22.3,99.2z M22.1,87 M22.3,97.5 M22.5,77.2 M22.7,93.4 M22.7,96.3 M22.8,76.6 M22.8,78.2 M23.3,76.7
		 M23.9,73.7c-0.1,0.1-0.3,0.1-0.4,0.1C23.6,73.7,23.7,73.7,23.9,73.7z M23.6,69.4 M25.8,73.1c-0.4,0.7,0,0.7-0.3,1.5
		c-0.4,0-0.9,0.1-1,0.4c-0.3-0.1-0.3-0.4-0.4-0.9c0.4,0.3,0.7-0.3,0.7,0.3c0.1,0,0.3-0.3,0.4-0.3c0.3-0.4,0-0.6,0.1-1
		C25.5,73.1,25.6,73.1,25.8,73.1z M24.2,72.8c0-0.1,0-0.3,0-0.4C24.6,72.2,24.4,73.1,24.2,72.8z M24.3,122.5 M25.5,76.9 M27.4,63.1
		 M27.5,65.2 M28,62.4 M28.5,75c-0.1,0.3-0.3,0.4-0.3,0.7C28.7,76,29,74.8,28.5,75z M28.7,67.7 M29.3,66.1 M29.3,123.9 M29.6,66.8
		c-0.1,0,0-0.1-0.1-0.1c0-0.1,0-0.1,0-0.3C29.7,66.3,29.7,66.6,29.6,66.8z M30.7,62.7c0.1-0.4,0.4-0.9,0.7-1.3c-0.1,0-0.1,0-0.3,0
		C31,62,30.3,62,30,62.6C30.4,62.4,30.4,62.6,30.7,62.7z M30.6,59.9c-0.1,0.1-0.1,0.1-0.1,0.3c-0.1,0-0.1,0-0.3,0
		c0-0.1,0-0.1,0.1-0.3C30.4,59.9,30.4,59.9,30.6,59.9z M30.3,65.9 M30.6,65.3 M30.6,79.2c0,0.3,0,0.4,0.1,0.4
		C30.9,79.4,30.7,79.4,30.6,79.2z M30.7,59.5 M31.3,63 M31.8,57.6c0,0.1-0.1,0.1-0.3,0.1C31.5,57.6,31.6,57.6,31.8,57.6z M31.8,57
		 M32.3,58.8 M38.8,51.9c-0.1,0.3-0.4,0.6-0.1,0.9c-2,1.2-3.1,3.4-4.5,5c0,0.4,0.4-0.3,0.6,0.1c-0.6,1.3-1.9,2.3-2,3.5
		c1-0.1,0.7-1.3,1.6-1.6c0.3-0.4-0.3-0.3-0.1-0.7c2.3-1.3,3.2-3.4,5.3-5.3c-0.1,1-1,1.3-1.3,2c1.9-0.9,1.9-3.2,3.8-3.9
		c0.4-1.2,1.2-1.9,1.9-2.6c-0.3-0.1-0.6,0.4-0.6,0c0.7-0.6,1.3-1.3,1.6-2c-0.7,0-0.6,0.7-1.2,1c0-1.3,1.6-2,2-3.4
		c-1.9,1.8-3.8,3.7-5.6,5.6c0.3,0,0,0.6,0,0.7c-0.4,0.3-0.9,0.3-1.2,0.7H38.8z M33.1,122.5 M33.1,122.5 M33.9,58.2
		c-0.1,0.1-1,0.7-0.6,1C33.4,58.9,34.2,58.5,33.9,58.2z M33.5,62c1,0.1,1.3-0.7,1.3-1.5c-0.1,0-0.6,0-0.6,0.1c0.4,0.1-0.1,0.6-0.3,1
		C33.7,61.7,33.5,61.7,33.5,62C33.4,62.1,33.5,62.1,33.5,62z M35.1,58.2c-0.1-0.3-0.3-0.4-0.1-1C35.6,57.3,35.3,57.7,35.1,58.2z
		 M35.6,58.8c-0.1,0.3-0.7,0.9-0.3,0.9C35.6,59.5,35.7,58.9,35.6,58.8z M35.8,53.5c0,0.3-0.1,0-0.3,0C35.6,53.3,35.8,53.3,35.8,53.5
		z M35.7,58.5 M36.6,121c0.1-0.1,0.1-0.3,0.1-0.4c-0.3,0-1,0.4-0.7,0.6C36,121,36.4,121,36.6,121z M36.3,122c-0.1,0,0.1-0.3,0.1-0.6
		C36.7,121.6,36.4,121.9,36.3,122z M37.5,57.4c0-0.1,0-0.1,0-0.3c-0.1,0-0.1,0-0.3,0c0,0.1,0,0.1,0,0.3
		C37.3,57.4,37.3,57.4,37.5,57.4z M37.7,59.3c-0.1,0.1-0.3,0.6-0.4,0.9C37.7,60.4,38.3,59.3,37.7,59.3z M37.5,49.4 M37.6,50.9
		c0.4,0.3,0.6-0.4,0.3-0.4c-0.1,0.1-0.1,0.1-0.3,0.1C37.6,50.7,37.6,50.7,37.6,50.9z M37.7,67.7 M38.8,50.7c-0.1,0-0.3,0-0.4-0.1
		c0,0.1-0.1,0.3-0.1,0.6C38.5,51.2,38.8,51.2,38.8,50.7z M38.9,52.2c0.4-0.1,0.3-0.3,0-0.3C38.9,52,38.8,52.2,38.9,52.2z
		 M39.2,120.4c0.4-0.6,0.9-0.9,1.5-1.2C40.2,119.7,39.9,120.4,39.2,120.4z M39.8,47.5c0-0.4,0.4-0.3,0.4-0.7
		C41,46.6,40.2,47.6,39.8,47.5z M40.8,119.1c0,0.1,0,0.1-0.1,0.1C40.7,119.1,40.7,119.1,40.8,119.1z M40.8,119.1 M42,45.5
		c-0.4-0.4,0.6-0.9,0.7-1.2C43.2,44.6,42,45,42,45.5z M43.2,43.8 M44.2,115.5 M44.9,115.7c0-0.1,0-0.4-0.3-0.4c0,0.1,0,0.1,0,0.3
		C44.8,115.6,44.8,115.7,44.9,115.7z M45.8,47.4c-0.1,0-0.3-0.1-0.6-0.1c0,0.1-0.3,0.7,0,0.7C45.2,47.6,45.6,47.6,45.8,47.4z
		 M45.3,115 M46.2,44 M47.8,43c-0.6,0.1-1.2,0.9-1.2,1.2C47.2,44,47.4,43.6,47.8,43z M47.4,46.6c-0.1,0-0.1-0.1-0.4-0.1
		c-0.1,0.3-0.1,0.4-0.3,0.6C47,47.2,47.1,46.9,47.4,46.6z M47.1,114.3c0-0.1,0-0.4,0-0.6c-0.1,0-0.1,0-0.3,0c0,0.1,0,0.4,0,0.6
		C47,114.3,47,114.3,47.1,114.3z M47.7,45.5c-0.3,0.3-0.3,0.6,0.1,0.4C47.8,45.6,47.7,45.6,47.7,45.5z M48.1,112.8
		c0.1,0,0.3,0,0.3-0.1C48.3,112.7,48.1,112.7,48.1,112.8z M48.9,41.5c-0.1,0.3-0.1,0.4-0.3,0.6C48.9,42.4,49.1,41.5,48.9,41.5z
		 M49.3,102.4c0-0.1,0-0.1,0-0.3c0-0.1,0-0.1-0.1-0.1c0,0.3-0.3-0.1-0.4,0.4C48.9,102.4,49.1,102.4,49.3,102.4z M49.6,101.7
		 M49.9,37.3c0.1,0,0.3,0.3,0.3,0C50.3,37.1,50,37.1,49.9,37.3z M52.1,42.7 M52.2,109.9 M54.5,97.8c-0.4,0.1-0.7,0.4-1.3,0.9
		C54,98.5,54.5,98.4,54.5,97.8z M54.3,96c0.4,0.1-0.1,0.9-0.7,0.7C53.5,96.3,54.3,96.6,54.3,96z M53.5,96.7 M54.8,35.8 M55.3,95.1
		 M55.7,106.5 M56.9,94.3 M57.9,95.6c0.4,0.3,0.6-0.4,0.3-0.4c-0.1,0.1-0.1,0.1-0.3,0.1C57.9,95.4,57.9,95.4,57.9,95.6z M59.7,100.5
		c-0.6,0-1.3,0.6-0.9,1C59.4,101.6,59.4,100.8,59.7,100.5z M58.8,30c0.3-0.1,0.4-0.3,0.7-0.3C59.4,29.8,59.1,30,58.8,30z M58.9,43.6
		c0-0.1,0.3-0.1,0.4-0.4C59.8,43.3,59.2,43.7,58.9,43.6z M59.7,91.6 M59.7,91.6 M59.8,36 M61.1,91.5c-0.3,0.4-0.6,1-1.3,0.9
		C60.1,92.1,60.5,91.5,61.1,91.5z M60,91.3c0-0.4,0.4-0.3,0.4-0.6C60.7,90.8,60.2,91.5,60,91.3z M60.1,92.9 M61.7,98.5
		c-0.6-0.1-1.2,1.2-1.2,1.6C61.3,99.7,61.3,98.9,61.7,98.5z M61.4,95.9c-0.1,0-0.3,0-0.4-0.1c-0.1,0.6,0.3,0.4-0.1,1
		c0.9,0,1.3-0.7,1.6-1.3c-0.4,0.1-0.7-0.1-0.6-0.4c0.4-0.1,0.4-0.4,0.4-0.9c0.3,0,0.4,0,0.7,0c0-0.3,0.7-0.7,0.1-0.7
		c-0.4,0.9-1.3,0.4-1.8,1.3C61,95.3,61.4,95.4,61.4,95.9z M60.8,102.3 M61.3,91.2 M61.3,91.2 M61.7,91.9 M62.6,93.4
		c0-0.1,0-0.1,0-0.3c-0.1,0-0.1,0-0.3,0c0,0.1,0,0.1,0,0.3C62.4,93.4,62.4,93.4,62.6,93.4z M62.6,88.9c0.1-0.1,0.3-0.6,0.6-0.4
		C63,88.7,62.9,88.9,62.6,88.9z M62.6,100.4c0,0.1,0,0.3,0,0.4C62.9,101.1,63,100.3,62.6,100.4z M63,99.8 M63.2,97.9
		c0.4,0.3,0.6-0.4,0.3-0.4c0,0.1,0,0.1-0.1,0.1C63.2,97.8,63.2,97.8,63.2,97.9z M63.2,100.5 M63.3,88.3 M63.9,99.4
		c-0.1-0.7,0.6-0.9,0.7-1.5c-0.6,0.1-1.2,1.2-1.2,1.5C63.6,99.4,63.8,99.4,63.9,99.4z M67,89c-0.1,0.7-0.4,1.3-0.9,1.5
		c0-0.1,0-0.3-0.3-0.3c-0.9,0.9-2.2,2.5-2.2,3.4c0.9-0.9,1.8-1.6,2.8-2.5c-0.1,0.3,0.3,0.1,0.1,0.6c-0.1,0-0.3,0-0.4,0.3
		c-0.1,0.1,0,0.1,0,0.4c0.6,0,0.9-0.4,0.9-1.2c-0.3,0-0.3-0.1-0.3-0.4c0.4-0.1,0.6-0.1,0.6-0.7c0.3,0,0.3,0.3,0.7-0.1
		c-0.3-0.6,0.7-1,1.2-2.2c0.3,0.1,0.4-0.4,0.7-0.4c0-0.7,1.2-1.2,0.4-1.3c-0.4,0.3-0.6,1.3-1.2,0.9C68.7,88,67.8,88.4,67,89z
		 M64.3,87.2c0.3,0,0.1,0.3,0,0.4h-0.1C64.2,87.5,64.3,87.4,64.3,87.2z M64.2,87.7 M64.3,99.4c0.1,0,0.3,0,0.3-0.1
		C64.5,99.2,64.3,99.2,64.3,99.4z M70,90.3c0.1,0.6-0.7,0.1-0.6,0.7c0.3,0.1,0.7-0.3,0.7,0c-1.6,0.7-2.5,2.3-3.9,3.7
		c0-0.4,0.6-0.7,0-0.9c-0.9,1.3-0.1,2.2-1.5,3.1c-0.1,0.3,0,0.6,0.3,0.7c1-1.2,1.9-2.3,3.1-3.5c0.7-2,2.8-2.3,3.5-4.4
		c-0.6,0-0.9,0.7-1.2,1C70.2,90.8,70.3,90.3,70,90.3z M64.9,87.8 M65.1,95.6c-0.1,0.3-0.3,0.7,0.1,0.7C65.4,96,65.5,95.4,65.1,95.6z
		 M67,27c-0.3,0-0.3,0.1-0.6,0.3C66.7,27.3,67,27.2,67,27z M66.4,85.6 M67,84.9c-0.1,0.1-0.1,0.1-0.1,0.3c-0.1,0-0.1,0-0.3,0
		c0-0.1,0-0.1,0.1-0.3C66.8,84.9,66.8,84.9,67,84.9z M67.3,94.7c-0.1,0-0.3,0-0.4,0c0-0.1,0.3-0.1,0.4-0.4
		C67.4,94.3,67.3,94.6,67.3,94.7z M67.1,87.7c0.1-0.1,0.6-0.1,0.6-0.6c1.2-0.4,1.9-1.3,2.2-2.5c0.3-0.1,0.6-0.1,0.9-0.1
		c0-0.7,0.4-1.2,0.9-0.9c0.3-0.4,0.6-1,1-1.3c0.1,0.1,0.3,0.1,0.4,0.1c1.2-0.6,1.6-3.1,2.9-2.8c1.8-1.5,3.1-3.1,4.7-4.4
		c-0.3-0.3,0.6-1,0-1c-0.4,0.4-0.7,1-1.6,1.2c-2.5,3.5-6,5.6-8.9,8.8c-0.1,0-0.3,0-0.4,0c-0.4,0.7-1,1.5-1.9,1.6
		C68,86.7,66.7,86.8,67.1,87.7C66.8,87.8,67,87.8,67.1,87.7z M67.8,87l-0.1,0.1C67.7,87.1,67.7,87,67.8,87z M68.3,86.4 M70,92.5
		c-0.1,0.7-0.6,1.9-1.6,2.8c1.3,0.6,1.3-2.2,2.5-2.3c-0.1-0.6,1-0.9,0.3-1.3c-0.4,0.4-0.9,0.6-0.6,1C70.5,92.7,70.3,92.5,70,92.5z
		 M69.6,26.2c-0.1,0-0.4,0-0.6,0c0,0.1,0,0.3-0.3,0.4C69.2,26.6,69.5,26.5,69.6,26.2z M68.9,24.8 M70.9,88.1
		c-0.1,0.1-0.4,0.3-0.7,0.3c0.3-0.3,0.3-0.4,0.1-0.7C70,88.1,70,88.6,69.9,89c-0.4,0.1-0.9,0.6-1,1c0.7-0.3,1.2-0.9,1.6-1.5
		c0.3,0,0.4,0.1,0.7,0.3c0.3-0.4,0.7-0.4,0.7-1c-0.4-0.1-0.3,0.6-0.7,0.4c0.3-0.6,0.9-0.6,0.9-1.2c-0.6,0.1,0-0.6-0.6-0.4
		c-0.3,0.3-0.6,0.6-0.7,0.9C71.1,87.5,70.9,87.8,70.9,88.1z M69,90.3c0,0.3,0,0.6,0.3,0.4C69.3,90.5,69.2,90.5,69,90.3z M69.2,93.4
		 M69.5,27.6 M70.3,94.7 M70.6,89.7c0,0.1,0,0.3-0.1,0.4C70.8,90.5,71.1,89.6,70.6,89.7z M71.1,26c-0.1,0.4,0.1,0.7,0.4,0.3
		C71.4,26.3,71.4,26,71.1,26z M71.1,83.9 M71.2,27.9 M71.2,84.8 M71.6,31.4 M71.8,88.7 M72.2,85.1c0.1-0.1,0.1-0.1,0.1-0.3
		c-0.1,0-0.1,0-0.3,0c0,0.1,0,0.1-0.1,0.3C72.1,85.1,72.1,85.1,72.2,85.1z M71.9,86.2 M72.1,25.7 M72.1,91.2 M72.4,85.5
		c0.1,0,0.3,0,0.3-0.1C72.5,85.3,72.4,85.3,72.4,85.5z M72.7,26 M73.5,82.9c0,0.4-0.9,0.7-0.6,1C73.3,83.6,74.3,83.2,73.5,82.9z
		 M73.1,24.7 M73.1,84.8 M73.4,87 M73.5,27 M73.5,85.1 M73.8,89.4c-0.1,0-0.1-0.1-0.3-0.1c0-0.1,0-0.1,0-0.3
		C73.8,89,73.8,89.3,73.8,89.4z M73.8,33.8 M75.7,26.3c-0.6,0.1-0.7,0-1,0.1C74.3,27.2,75.7,27,75.7,26.3z M74.9,87.4 M75.4,87
		c-0.3,0,0.1-0.6,0.4-0.4C75.9,86.7,75.4,86.8,75.4,87z M75.9,32.2 M76.2,79.1c0,0.1-0.1,0.1-0.3,0.1C75.9,79.1,76,79.1,76.2,79.1z
		 M76,27.5 M76.8,83.7c-0.3,0.1-0.3,0.6-0.7,0.7c0-0.3,0.3-0.3,0.1-0.7C76.3,83.7,76.6,83.7,76.8,83.7z M76.2,29.5 M76.3,28.1
		 M76.5,27.5 M77.2,26.3c-0.4,0.1-0.3-0.3-0.6-0.3C76.6,25.7,77.3,26,77.2,26.3z M76.8,28.4 M77.1,87.1c0,0.1,0,0.1,0,0.3
		c-0.1,0-0.1,0-0.3,0c0-0.1,0-0.1,0-0.3C76.9,87.1,76.9,87.1,77.1,87.1z M77.1,83.9c0-0.1,0-0.1,0.1-0.3c0.1,0,0.1,0,0.1-0.1
		C77.6,83.4,77.5,84.2,77.1,83.9z M77.5,28.2c0.1-0.1,0.1-0.1,0.1-0.3c-0.1,0-0.1,0-0.3,0c0,0.1,0,0.1-0.1,0.3
		C77.3,28.2,77.3,28.2,77.5,28.2z M77.8,31.6C78.2,31.4,77.9,31.4,77.8,31.6C77.5,31.7,77.6,31.7,77.8,31.6z M77.6,28.4 M78.4,78.3
		c-0.1,0.4-0.4,0.4-0.6,0.7C78.5,79.2,78.5,78.6,78.4,78.3z M78.2,81.7c0.3-0.4,0.6,0.6,0.1,0.9C77.6,82.9,78.7,81.7,78.2,81.7z
		 M79.1,27.5c0,0.3,0.1,0.4,0.3,0.6c-0.3,0.1-0.7,0.7-1,0.3C79,27.9,78.4,27.5,79.1,27.5z M78.5,82.7c0,0-0.1,0-0.1-0.1
		C78.5,82.6,78.5,82.6,78.5,82.7z M78.5,31.4 M78.5,82.7 M79.1,81.7c-0.7,0-0.1-1.2,0.4-0.7C79.4,81.3,79,81.3,79.1,81.7z M79,28.9
		 M79.4,28.5c0,0.3,0.1,0.4,0.3,0.4C79.7,28.6,79.5,28.6,79.4,28.5z M79.4,80.1 M79.7,29.2c0,0.1,0,0.4-0.1,0.6
		C80.3,29.8,80.1,29.4,79.7,29.2z M80.4,39.8c-0.1,0.3-0.7,0.9-0.3,0.9C80.1,40.3,80.9,39.9,80.4,39.8z M80.4,33
		c-0.1,0.1-0.3,0.3-0.3,0.4C80.6,33.8,80.9,32.9,80.4,33z M80.1,34.8c0.1,0,0.3,0,0.4-0.1C80.4,34.6,80.3,34.6,80.1,34.8z
		 M80.1,80.5 M80.3,30.3 M80.3,76.6 M80.7,30.8C81,30.7,80.7,30.7,80.7,30.8C80.6,31,80.7,31,80.7,30.8z M80.7,31.4 M82,78.2
		c0.4,0.3-0.3,0.7,0,1.2c-0.7-0.6-0.9,1.2-1.3,0.6C81,79.2,81.6,78.9,82,78.2z M80.7,79.9 M81.1,31.4c0.1,0,0.3,0,0.3-0.1
		C81.3,31.3,81.1,31.3,81.1,31.4z M81.3,33.9 M81.3,73.8c0,0.1,0,0.3,0,0.4C81.7,74.5,81.9,73.7,81.3,73.8z M82,77.9 M83,78
		c-0.3,0-0.3,0.1-0.6,0.1c-0.3-0.3,0.4-0.6,0.4-1C83.2,77.3,83,77.7,83,78z M82.8,72.8 M83.8,71.9c0-0.1,0-0.1,0.1-0.3
		c-0.1,0-0.1,0-0.3,0c-0.1,0.1-0.1,0.1-0.1,0.3C83.6,71.9,83.6,71.9,83.8,71.9z M86,68.4 M86.3,71.5c0.1,0,0.3,0,0.3-0.1
		C86.4,71.3,86.3,71.3,86.3,71.5z M86.6,72.3c0-0.1,0.1-0.1,0.4-0.3C86.8,72.2,86.8,72.3,86.6,72.3z M92.7,63 M101,55.5"/>
	<path class="st0" d="M127.6,95.3c0.1,0.4,1-0.3,1,0.1c-1.6,4.4-4.2,6.4-5.8,9.8c0.4,0.1,0.9-0.1,1-0.4c0.4,0.9-0.9,1-1.2,1.5
		c0.3,0.4,0.4-0.3,0.7-0.1c-0.7,0.7-1.3,2.6-2.5,3.1c-1.2,3.1-3.7,6.3-4.8,8.9c0,0.3-0.3,0.1-0.4,0c-0.7,0.6,0.3,0.6-0.1,1
		c-0.6,0.1,0.1-0.3-0.3-0.3c-0.7,0.3,0.4,0.6-0.1,1c0.9-0.1,0.9-1.3,1.6-1.9c0.1,0.9-0.6,2.3-1.8,2.3c-0.7,2.5-2.9,4.8-2.6,6.6
		c0.6-0.6,0.4-1.9,1.3-2.2c-0.4,0.9-0.6,2-1.2,3.2c-3.1,2.9-3.9,8.5-6.7,11.5c-0.3,1.5-0.6,1.6-1.3,2.8c0,1-0.3,1.9-1.2,2.3
		c-0.1,0.7-0.1,1.9-0.7,2.2c0.1-0.3,0-0.3-0.1-0.3c-0.1,0.3,0,0.3,0.1,0.3c-1.8,3.8-2.9,9.5-5.7,13.7c0.3,1-1,2.5-1.6,3.8
		c-0.1-1.3,1.6-3.1,1.2-4.7c0.3-0.6,0.6-1.2,1.2-1.6c0-0.3-0.1-0.4-0.1-0.6c0.4-0.3,0.6-0.7,0.4-1.3c-0.3,0.6-0.7,1-0.9,1.8
		c-0.3,0.3-0.7,0.4-1.2,0.6c-0.6,3.9-3.1,6.9-3.9,10.4c-0.4,0.1-0.7,0.4-0.6,0.9c-0.3,0-0.1-0.6-0.4-0.6c-0.7,0.4-1.3,0.9-2,1.8
		c-1.5,0.4-2,1.6-3.1,0.9c-0.3,0.4-0.7,0.7-0.9,1.2c-0.1-0.1-0.4-0.1-0.9-0.1c-0.7,0.9-1.9,1.6-3.1,1.2c0.1-0.7,0.1-1,0-1.9
		c0.4,0,0.3,0.3,0.6,0c1-1.9-0.6-3.2,0.7-4.4c0,0.4-0.4,1,0,1c0.1-0.7,1-1.9,0.4-2.5c0.7-1.9,1.3-3.8,2-5.8c0.9-0.1,1-1.2,1.8-1.5
		c0-1.5,0.6-2.8,1.8-3.5c-1,1.9-0.9,3.4-1.8,5.3c0.9-0.1,0.3-1.3,1.2-1.5c-0.9,1.8-1,3.2-1.5,4.7c1-0.3,0.9-2.2,1.3-3.2
		c0.6,0.1,1.3-1.3,0.7-1.5c0.4-0.6,0.9-1,0.7-1.8c1.5-1.5,1.6-5,3.4-6.1c-0.1-0.4-0.3,0.1-0.6,0c-0.1-0.4,0.4-0.3,0.4-0.7
		c-0.7-0.1-0.3,1-1,0.9c1.8-1.8,2.8-5,4.1-7.2c-1,2.5-2.3,6.1-2.6,8.6c-0.1,0-0.3-0.1-0.4,0c-0.1,0.4,0.1,0.4,0,0.9
		c-0.6,0.3-1.2,2-0.7,2.8c1-2.3,2-6.4,3.9-8c-0.4-0.4,0.4-0.7,0-1c0-0.3,0.4,0,0.6-0.3c0.7-2,1.8-3.7,2.3-5.6
		c1.3-1.2,3.2-3.8,3.1-5.8c-0.7,1.2-1,2.6-1.9,3.5c-0.3-0.1,0.3-1.2,0.3-2c0.1,0,0.1,0.1,0.3,0.1c0.6-1.9,1.6-3.5,2.3-5.4
		c1.5-0.7,2.9-2.5,3.1-4.1c-0.7,0.7-0.7,1.9-1.6,2.3c0.3-1.3,1.9-3.1,2.3-5c1-0.4,1.2-1.8,1.8-2.8c0.4-0.7,0.9-0.6,0.6-1.3
		c0.1,0,0.3-0.1,0.6-0.3c0-2,2.2-3.8,2.6-5.4c0-0.3,0.6-0.1,1-0.4c0.7-1.6,0.1-2.8,1.5-3.8c-1.3,0.3-1.9,1.6-2.5,2.8
		c-0.3-0.3-0.3-0.3-0.7-0.1c0.4-0.7,0.9-1.2,1.6-1.5c-0.7-0.6,1-1.2,0.7-1.9c1.2,0.4,1.8-1,2.3-1.9c0-0.4-0.1,0.7-0.6,0.4
		c0-0.3,0.1-0.6,0.3-0.9c-0.9,0.3-0.9,1.5-1.6,1.6c-0.7-0.3,1-0.6,0.9-1.5c1-0.4,1.8-1.3,2.6-2.5c0.1-0.3,0.7,0.4,0.7-0.4
		c-0.6,0.4-0.1-0.9,0.1-1.8c-1.3,0.7-2.5,2-3.5,3.2c-0.4-0.3,0.7-1.2,0.9-2c0.3,0,0.7-0.1,0.9-0.6c-0.3-0.4-0.3,0.3-0.6,0.1
		c0.3-0.9,0.9-1.5,1.3-2.5c1.2-0.3,1.6-1.3,2-2.6c-0.6-0.1-0.4,0.6-0.7,0.7c-0.1-0.6,0.6-1.2,0.7-2c1.2-0.1,1.3-1.6,2.3-2
		c0-2.2,2.3-3.8,3.7-6.3c-0.7,0.7,0.6,0.4-0.1,1.3c0.6,0.1,0.4-0.3,0.6-0.7c0.3,1.2-1.6,1.6-1.8,2.8c0.4,0,0.4-0.1,0.6-0.6
		c0.4-0.1,0,0.4,0.6,0.3c1.5-1.5,0.9-3.4,2.8-4.5c-0.6-0.9,1.5-2.3,0.9-2.8c0.6-0.3,1-0.7,1.3-1.3c-0.7-0.1-0.4,0.6-0.9,0.6
		c-0.6,0,0.1-0.1-0.1-0.4c-0.7,0.6-0.7,1.5-0.9,2.3c-0.6,0.3-0.7,0.9-1.3,1c-0.3,0.4,0.3,0.3,0.1,0.7c-0.7,0.3-1,1.6-1.8,1.3
		c0.3-0.6,1.5-1.2,1.2-2c0.4-0.3,0.7-0.7,1.3-1c-0.1-0.3,0.1-0.6-0.1-0.7c-1.9,1.6-3.1,3.8-4.7,5.6c1-1.6,1-3.2,2.8-4.4
		c-0.3-0.3-1,0.6-1.6,0.4c2.2-0.9,3.9-4.2,4.2-6.3c-0.4,0.1-0.6,0.7-1,0.4c0-0.3,0.4-0.1,0.6-0.4c-0.7-0.4-1.8,0.9-1.6,1.5
		c-0.4-0.1-0.6,0.1-0.9,0.1c0.3-0.1,0.3-0.7,0.7-0.7c-0.3-0.1-0.7-0.1-0.6-0.6c-0.9,0.7-1.2,2-1.8,2.8c0.1,0.4,0.9,0,1,0.6
		c-1.2,0.3-1.5,1.3-2.5,1.9c0.1,1-0.9,1.3-1.2,2.2c-0.1,0.4-0.4,1-0.9,1.2c-0.3,0.4,0.3-0.1,0.6,0c-0.6,0.4-0.9,0.7-1.5,0.7
		c1-3.1,2.9-4.5,3.7-7.5c0.6-0.1,1.2-1.2,1.3-1.8c-0.6-0.1-0.4,0.4-1,0.3c-0.4,0.1-0.3,1-0.9,1c0-0.4,0.3-0.7,0.6-1
		c-1,0.4-2.2,0.3-3.2,0c-1.3,0.4-2.3,0.9-3.8,0.6c-0.4-0.1-0.4,0.4-0.7,0.3c-2.6-0.6-6,0.6-8.2,0.6c-0.7,0.3-1.3,0.7-2.3,0.6
		c-2,2.5-2,5.6-4.5,7.2c-0.4,1.6-1.3,2.9-2.5,3.5c0.3,1.2-1.6,2.5-2.5,3.1c-0.7,2-2.3,3.9-3.5,6.1c-0.7,0.1-1,0.7-1.3,1.3
		c-0.6-0.7-1,0.6-1.9,0.6c-0.4,1.6-2,2.9-2.8,4.2c-0.4,0.1-0.4-0.1-0.7-0.1c-1.9,1.9-2.8,4.2-5.1,5.7c-0.7-3.9,2.8-8.6,3.9-12.1
		c0.1,0,0.3,0,0,0.3c1.5-2.9,2.9-5.1,3.5-8.2c1.5-1.8,2.6-4.4,3.1-6.1c0.6-0.9,1.6-1.9,1.6-3.1c-1.9,0.3-3.8,1-5.4,1.8
		c-1.3,0-1.3-1.2-1.5-2c-0.1-0.7-0.6-1.5-0.7-2.5c0-1.5,0.1-2.5-0.1-3.8c0-0.4,0.6-0.3,0.4-0.7c-0.9-0.3-0.4-1.8-0.6-2.6
		c1.3-1.3,0.9-3.7,2.6-5.1c1.2,0.7,1.8,0.4,3.2,0.1c0.6,0,0,0.3-0.1,0.4c2.6,0.4,5.7-0.6,8.8-0.9c0,1,2,1,2.3-1
		c0-0.4,0.4-0.3,0.6-0.4c0.6-2.6,2.6-3.9,2.9-6c0.9-0.3,1.2-1.3,1.5-2.3c0.3,0,0.3-0.1,0.4-0.3c4.4-7.3,8.2-14.6,12.6-21.8
		c0.1-0.1,0.6-0.1,0.6-0.3c1.2-1.6,1.3-3.7,2.8-4.8c3.5,0.7,6.7,0.9,8.3,3.1c-0.4,1.2,0.1,1.5,0.4,2c-1.2,4.7-3.7,7.5-5.8,10.7
		c-1.3,2.2-3.4,6.1-5.3,8.6c-0.7,2-2,3.2-2.6,4.5c-0.3,0-0.4,0-0.7,0.1c-1,2.9-2,5.3-3.4,7.3c-0.1,0.3,0.3,0.1,0.1,0.6
		c1.2,0,2.2-0.1,3.2-0.3c-1.2,1-3.4-0.1-4.4,1.3c3.8-0.1,7-1,11.5-1.5c0-0.6-1.5-0.1-2-0.1c1.6-0.7,2.6-0.3,4.2-0.6
		c-0.1,0.4-0.9,0.4-1.3,0.4c1,0.7,2.6,0.1,4.2-0.1c0.3-0.4-0.1-0.4,0.1-0.7c0.1,0.7,0.9,1.2,2,0.7c-0.3-0.9,0.4-0.9,1.2-1.6
		c0-0.3,0.6-1,0-0.9c0.7-1,1.6-0.9,1.3-2.3c0.6-1,3.1-2.2,1.6-2.9c0.7-1.2,0.6-2,1.2-3.1c0.1-0.1,0.4-0.1,0.7-0.1
		c0.7-1.3,1.5-2.8,2-3.9c0.1-0.1-0.1-0.1-0.3-0.1c0.4-0.3,1.5-1.2,1.2-2c0.6-0.9,1.6-1.9,2.2-2.5c0.3-0.6-0.6-0.1-0.3-0.7
		c0.9-0.4,0.6-1.2,1.6-1.6c0.3-0.4-0.3-0.1-0.1-0.6c1.6-0.3,1-3.1,2.9-3.8c0-0.3-0.1-0.3-0.1-0.4c3.5-5.4,5.7-8.9,9.1-14.9
		c0.3-0.4,0.3-0.7,0.3-1.2c1.2-2.2,2.5-5.1,3.5-7c-0.3-0.1-0.6-0.3-0.7-0.4c0.3-0.7,0.4-1.3,1.5-1.6c0.4-2.2,2.2-3.5,4.1-3.4
		c-0.4,0.4-0.4,0.6-0.1,0.7c0.3,0,0-0.6,0.6-0.7c0.1,0,0,0.3,0.4,0c0.4,0.3-0.4,0.4-0.4,0.9c0.1,0.3,0.9,0,1.2-0.3
		c1.9,0.9,4.1,1.3,5.6,2.5c0.4,0,0.9,0,1.3,0c0.6,1.5,3.1,1.6,2.2,4.2c-1.9,2.5-3.2,5.8-4.8,8.3c-0.9,1.5-1.6,2.5-2.5,4.1
		c-0.6,1-1.5,1.9-2,2.8c-0.7,1.8-1.3,2.3-2.2,3.7c-1.2,1.9-2,3.9-3.4,5.7c-0.3,0.3-0.6,0.3-0.9,0.6c-1.2,1.9-2,3.7-3.2,5.4
		c-0.3,0.6-1,0.9-1.3,1.3c-1,1.9-1.5,3.1-2.8,4.4c-0.3,0.4-0.1,0.6-0.1,0.9c-2.3,2.5-4.1,5.8-6,8.8c0,0.3,0.4,0.1,0.6,0.3
		c-0.1,0.4-1,0-1.2,0.6c2.5-0.1,6.1,0.6,8.8-0.6c-0.6-0.3-2,0.3-2.5-0.3c1,0,3.2-0.3,5-0.4c0,0.3-0.1,0.4-0.1,0.6
		c1.2-0.3,2.3-0.3,3.2-1.5c0.4,0.6,1.8-0.3,2.5,0c-0.9,0.4-1.5,0.4-2.8,0.4c0.4,1.2,2.6,0.3,3.9,0.3c0.6,0,0.6-0.4,1-0.6
		c1.8-0.3,4.4,0.6,6.3-0.1c2.3,0.1,5.4,0,7.5,0.6c-1.3,1-3.5,1.2-5.1,1.9c-0.1,0-0.1,0.4-0.3,0.6c-0.7,0-1.5-0.1-1.9,0.7
		c-1,0.1-2.6,0.3-3.4,0.1c-0.3,0.3-0.3,0.9-0.6,1c-1.6-0.3-3.2,0.4-4.4,1.3c-1.3-0.3-2.9,0.9-4.5,1c-0.4,1.8,1.5,0.7,2.5,0.4
		c-0.9,1.2-1.9,0.7-2.6,1.5c-0.3,0-0.6,0-0.6-0.3c-0.7,0.4-2.6,1.5-2.9,0.6c-0.9,0.9-2.6,0-3.7,0.9c-1-0.1-1.6,0.1-2.6,0.1
		c-1.8-1-4.2,1.5-5.8,0.3c-0.1,0-0.1,0.3-0.3,0.4c-0.7-0.4-1.5,0.3-2.3,0.1c-0.3,0.1-0.4,0.7-0.7,1c1.8,0,3.2-0.4,5.1-0.9
		c-0.7,0.9-2,0.9-2.8,1.6c-1.2-0.1-1.8,0-2.9,0.3c-1.6,2.5-2.9,4.4-4.2,7.3c-0.7,0.1-1.3,1.2-1,1.8c-0.3,0.4-0.1,0.1-0.6,0.1
		c-0.1,1.3-1.3,1.8-1.3,2.5c1-0.3,1-1.3,1.8-1.6c-0.6,1.8-3.5,2.8-3.8,4.7C127.9,94.8,127.9,95,127.6,95.3z M84.7,159.4 M85.5,164.6
		c0.4,0,0,0.6,0.4,0.4c0.4-0.3,0.1-0.6,0.3-1c-0.6,0.3-0.4,0-1-0.1c0.3,0.9-1.2,1.9-0.3,2.2C85.2,165.6,85.2,164.8,85.5,164.6z
		 M84.8,81.8c0.1,0,0.3,0,0.4-0.1C85.1,81.7,84.9,81.7,84.8,81.8z M84.8,172.9 M85.1,82.9 M85.2,78.8 M85.5,81 M86.1,83.6
		c-0.1,0-0.1,0-0.3,0c-0.1,0.1-0.3,0.1-0.3,0.3C85.8,83.9,86.1,83.9,86.1,83.6z M86,170.3c-0.1,0.3-0.3,1-0.1,1.2
		C86,171.3,86.6,170.3,86,170.3z M86.1,107.9 M87.4,169.2c-0.3,0.4-1,1.5-0.7,1.9C86.8,170.7,88,169.5,87.4,169.2z M87.3,71.9
		 M87.4,168.4c0,0.1-0.1,0.3-0.1,0.4C87.6,169.1,87.9,168.2,87.4,168.4z M87.6,158.6c-0.3-0.3,0.9-0.7,0.3-1
		C88.5,157,88.3,158.9,87.6,158.6z M87.7,159.6c0-0.1,0.1-0.3,0.4-0.3C88.2,159.4,88,159.6,87.7,159.6z M102.9,122.8
		c-0.1,0-0.1-0.3-0.3-0.3c-0.4,1-0.6,1.2-0.9,2c0.9-0.7,0.4,0.9-0.4,0.7c0,0.9-0.4,1.2-1,1.6c-0.1,0.6,0.4,0.4,0.1,0.9
		c-1.2,0.9-1.6,3.9-2.9,5.7c-0.1,0.3,0.3,0.1,0.3,0.4c-0.7,0.6-0.9,1.8-1.8,2.2c-0.1,1.9-0.9,3.1-1.9,5.3c0.4,0,0.6-0.3,0.7-0.7
		c0.3,0.1-0.1,0.7,0,1c-2,1.3-2.5,3.8-3.1,5.6c-0.6,1.5-1.8,2.5-1.5,3.5c-1.2,1-0.7,3.1-2.5,3.2c0.1-0.3,0.4-1,0.7-1.3
		c0.1-0.3-0.3-0.3-0.7-0.3c0-0.3,0.4-0.4,0.6-0.7c0.4,0,0,0.6,0.4,0.6c0.6-0.6,0.4-1.2,1.3-2.2c-0.1-0.4-0.1-0.1-0.6-0.1
		c0.3-0.7,1.2-1.9,1.8-3.1c0.3-1.8,0.6-2.5,1.3-4.4c0.1,0.3,0.4,0,0.6-0.3c-0.3-0.6-0.7,0.4-1.3,0.4c0.3-1,1.2-3.7,2.8-4.7
		c0-0.1-0.1-0.1,0-0.4c-0.4-0.1-0.6,0.1-0.9,0.4c0.3-1.8,1.5-2.9,2.2-4.7c0.4,0-0.4,1,0.1,0.7c-0.9,0.6-0.9,2-1.6,2.9
		c-0.1,0.1,0.1,0.3,0.1,0.4c1-1.2,1.5-3.4,2.5-3.9c-0.3-1.2,0.9-2,1-3.2c2.2-2.5,1.6-4.2,3.7-6.6c-0.3-0.4,0.6-1.2,0.9-1.6
		C103.7,121.7,102.9,122.5,102.9,122.8z M88,155.1c-0.1-0.3-0.1-0.9,0.4-0.9C88.6,154.8,88.3,154.8,88,155.1z M88.7,155.8
		c-0.4-0.1,0.1-0.3,0.3-0.9C89.8,154.9,88.7,155.5,88.7,155.8z M88.6,165 M89.5,160.9c-0.6-0.1-0.9,1.3-0.3,1.2
		C89.3,161.8,89.5,161.3,89.5,160.9z M89,151.5c-0.3,0,0-0.4-0.1-0.7C89.3,150.8,89.2,151.4,89,151.5z M89.9,159
		c-0.3,0.6-0.3,1-0.9,1.8C89.9,160.6,90.2,159.4,89.9,159z M89.2,80.2 M89.5,103.8c0,0,0-0.1,0.1-0.3c-0.1,0-0.1,0-0.3,0
		c-0.1,0.1-0.1,0.3-0.1,0.3C89.3,103.8,89.3,103.8,89.5,103.8z M89.5,169.2c0,0,0-0.1,0.1-0.3c-0.1,0-0.1,0-0.3,0
		c-0.1,0.1-0.1,0.3-0.1,0.3C89.3,169.2,89.3,169.2,89.5,169.2z M89.3,105.8 M89.6,153.3c0.1-0.3,0.3-0.3,0.6-0.3
		C90.2,153.2,89.9,153.3,89.6,153.3z M89.8,105.4 M90.9,156.4c-0.4,0.7-0.6,1.3-0.4,1.8C91.1,158.3,91.5,156.4,90.9,156.4z
		 M91.4,166.6c-0.1,0,0-0.1-0.3-0.1c-0.3,0.9-0.6,1.8-0.4,2.2C91.7,168.2,90.5,167.6,91.4,166.6z M90.6,150.7 M90.8,159.3
		 M91.1,79.5c0.1,0,0.1,0.3,0.4,0.1C92,79.2,91.1,79.2,91.1,79.5z M91.4,148.8 M91.7,143.7c-0.6,0.3,0.1-0.4-0.1-0.4
		C91.7,142.8,91.8,143.4,91.7,143.7z M92.5,155.6c-0.4,0-0.6,0.3-0.6,0.7C92.5,156.5,92.1,155.8,92.5,155.6z M92.1,147.3
		 M92.3,146.7 M93.7,152.9c-0.1,0-0.4,0-0.6,0c-0.3,0.6-0.7,1.8-0.6,2.3C93.1,154.2,93.3,153.6,93.7,152.9z M92.7,145.8 M93,147.7
		 M93.7,159.6 M93.9,139.1c0.1,0,0.1,0,0.3,0c0,0,0-0.1,0.1-0.1c0,0,0-0.1,0-0.3c-0.1,0-0.1,0-0.3,0c0,0.1,0,0.1-0.1,0.1
		C93.9,139,93.9,139.1,93.9,139.1z M94.3,144.8 M95.3,151.3c-0.1,0-0.1-0.1-0.4-0.1c0,0.6-0.4,0.3-0.4,0.7
		C94.9,152,95.2,151.5,95.3,151.3z M94.9,148.9c-0.1,0.3-0.3,0.3-0.3,0.6C95,149.5,95.3,148.9,94.9,148.9z M99,72
		c-0.7-0.1-0.7,0.7-1.5,0.4c0-0.3,0.6-0.6,0-0.6c-0.4,0.6-2.2,0.3-2.8,1.2C95.9,72.8,98.1,73.5,99,72z M95.2,140.1 M95.5,143.5
		 M95.5,154.2c0,0.3,0,0.6,0.3,0.6C95.8,154.5,96.1,154,95.5,154.2z M96.9,152.4c-0.1,0-0.3-0.1-0.6-0.1c0.1,0.7-1,1.6-0.1,1.6
		C96.3,153.2,96.8,153,96.9,152.4z M95.9,138.4 M96.6,156.8c-0.3,0.4-1,0.7-0.6,1.2C96.6,158.1,97.1,157,96.6,156.8z M97.2,73.2
		c-0.3,0-0.4,0-0.7,0c-0.1,0.1-0.1,0.3-0.1,0.3C96.6,73.5,97.1,73.8,97.2,73.2z M96.3,132.5c0.1-0.6,0.4-1.2,0.7-1.6
		C97.1,131.4,96.9,132.4,96.3,132.5z M96.6,145c-0.3-0.1,0-0.3,0-0.4C96.9,144.7,96.6,144.8,96.6,145z M97.7,144.7
		c-0.3,0.9-1,2-0.9,2.6C97.2,146.7,97.7,145.7,97.7,144.7z M96.8,136.1c0-0.4,0.3-0.3,0.3-0.7C97.4,135.3,97.2,136.3,96.8,136.1z
		 M96.9,140.3 M96.9,143.5c0-0.1,0.1-0.3,0.1-0.4C97.5,142.9,97.2,143.8,96.9,143.5z M97.5,150.7c-0.4,0-0.6,0.3-0.6,0.6
		C97.4,151.4,97.1,150.8,97.5,150.7z M97.4,130.6 M97.5,134.9 M97.5,142 M98,129.5c0,0.1-0.1,0.1-0.3,0.1
		C97.7,129.5,97.8,129.5,98,129.5z M97.8,140.3c0,0.1,0,0.1-0.1,0.1C97.7,140.4,97.7,140.3,97.8,140.3z M97.7,140.4 M97.8,140.3
		 M98.1,141.5c-0.3,0,0-0.4,0-0.7C98.4,140.9,98.1,141,98.1,141.5z M98.1,129c-0.3-0.6,0.7-0.9,0.7-1.6
		C99.1,128,98.1,128.6,98.1,129z M98.1,136.9c0.7-1.3,1.3-2.8,2-3.9C100.3,133.9,99.3,136.3,98.1,136.9z M98.8,139.9
		c-0.1,0-0.3-0.1-0.3-0.4c-0.1,0-0.3,0-0.3,0.1c-0.4-0.4,0.7-0.4,0.6-1C99.3,138.7,98.8,139.6,98.8,139.9z M104.5,138.5
		c-0.7,1-1.8,2.5-1.6,3.8c-1.8,3.7-3.1,6.7-4.5,11c0.4,0,0.6-0.7,0.9-0.1c0.1-2.9,2.8-7,3.9-10.4c0.1,0,0.3,0,0.4,0
		c-0.6-2.2,2.8-5.8,2.8-7.6c0.3,0,0.7-0.1,0.9-0.3c0-0.4-0.1-0.7-0.3-1c0.3-0.3,0.9-0.6,0.4-1c0.6-0.7,2-2.5,2-3.1
		c-1.9,0.7-1,2.2-2.8,3.1C106,135.2,104.7,136.1,104.5,138.5z M98.7,132.5 M99,73.2 M99.3,131.5c0,0.1-0.1,0.1-0.3,0.1
		C99,131.5,99.1,131.5,99.3,131.5z M99,133.9 M99,133.9 M99,137.2 M99.6,71.9c0,0.1-0.4,0.3-0.1,0.4C99.4,72.2,99.9,72,99.6,71.9z
		 M99.4,153.6 M100,124.8 M100,144.2 M100,153 M100.4,133.7c0.1-0.3,0.3-0.3,0.4-0.6C101.2,133.1,100.9,134,100.4,133.7z M101,141.2
		c0,0.4-0.6,0.6-0.4,0.9C101,142.3,101.6,141,101,141.2z M100.7,149.4 M106.3,120.3c0.1,0.3,0.4,0.6,0.4,0.7c0,0.4-0.3,0.6-0.6,0.7
		c0,2-3.7,4.8-3.8,7.5c-0.7,0.3-0.9,1-1.5,1.3c1.2-1.6,2-4.1,2.3-5.6c1.5-2,2-4.5,3.7-6C107,119.7,107,119.7,106.3,120.3z
		 M101,145.7 M101.2,132.8c-0.3,0,0.1-0.6,0-0.9C101.9,132,101.2,132.5,101.2,132.8z M101.2,128.7 M101.5,140.3
		c0,0.3-0.1,0.3-0.3,0.6C101.6,141,101.9,140.3,101.5,140.3z M101.6,125.1c0-0.1,0.1-0.3,0.1-0.4c-0.1,0-0.3,0-0.4,0
		c0,0.1,0,0.3,0,0.3C101.5,124.9,101.5,125.1,101.6,125.1z M102.9,138c-0.1,0-0.3,0-0.4,0c-0.4,0.6-0.6,1.6-0.9,2
		C102.6,140,102.3,138.7,102.9,138z M102.2,130.8 M102.8,130.5 M103.2,121.7c-0.6-0.3,0.4-1,0.6-1.8
		C104.4,120.1,103.2,121.1,103.2,121.7z M106,113.8c2-0.1,1.2-2.5,2.3-3.5c0.4,0.4,0.6-0.1,1-0.4c0.4,0.6-0.6,1.9-1.3,1.9
		c0.4,0.3-0.1,0.6-0.4,0.9c0.3,0,0.4-0.1,0.7-0.1c-0.4,0.7-0.3,1.6-1.5,2c0,1-1.2,1.8-1.8,2.8c-0.1,0.3,0.4,0.1,0.3,0.3
		c-0.3,0.6-0.7,1.3-1.2,1.9c-0.4-0.1-0.6,0.1-0.7,0.4c0.4-1,0.1-3.9,2.2-3.9c-0.6-0.4,0.3-0.6,0.4-1.6c0.1-0.1,0-0.1-0.1-0.1
		C106,114.1,106,114,106,113.8z M103.8,116.9 M103.8,143.2 M104.5,134.9c0,0,0-0.1,0-0.3c-0.1,0-0.1,0-0.3,0c0,0.1,0,0.3,0,0.3
		C104.4,134.9,104.4,134.9,104.5,134.9z M104.8,124.8 M105.8,112.8 M106,114.3 M106.3,129.9c0.6,0,0.7-1.2,0.6-1.3
		c0,0.1-0.3,0.1-0.4,0.1C106.4,129.2,106.3,129.6,106.3,129.9z M106.6,120.3c0.3-0.1,0.6-0.1,0.6-0.4
		C107.6,120,106.9,120.4,106.6,120.3z M107,113.1c-0.1,0-0.1,0.1-0.1,0.1c-0.1,0-0.1-0.3-0.1-0.4C107,112.8,107,113,107,113.1z
		 M106.9,119c0.1-1,1.2-2.8,2-4.5h0.1C108.3,115.9,107.9,118.2,106.9,119z M108,128.3c-0.3,0-0.6,0.1-0.7,0.3
		C107.6,128.6,107.9,128.5,108,128.3z M107.7,115.7 M108.6,109c-0.4-0.1,0.3-0.7,0.6-0.7C108.9,108.7,108.6,108.7,108.6,109z
		 M108.8,124.9c0,0.1-0.1,0-0.1,0.1C108.5,125.8,109.6,124.2,108.8,124.9z M117.5,112.2c0-0.1,0-0.3-0.3-0.3c-1.2,2-2.5,5.1-3.7,7.5
		c0.1-0.1,0.1-0.4-0.1-0.4c-1.5,4.1-4.2,7.9-4.8,11c0.6,0.1,0.6-0.4,0.9-0.6c0.1-0.4-0.3-0.4,0.1-1c0.6-0.4,0.7-1.5,1.3-2
		c0.4-2.6,2.8-4.7,3.7-7.9c1.9-3.1,4.5-6.6,5.8-10.5c-1.2,1.2-1.6,2.3-2.8,3.4C118.1,111.2,118.1,112.1,117.5,112.2z M109.1,109.9
		c0,0.1-0.1,0.1-0.3,0.1C108.8,109.9,108.9,109.9,109.1,109.9z M108.9,77.3c1-0.6,3.7,0.1,4.7-0.9c-1.8,0.3-2.8-0.3-4.2-0.1
		C109.4,76.7,108.6,77.2,108.9,77.3z M111.5,109.5c0.4,0.1-0.1,0.3,0,0.6c0.7-0.3,0.7-1.5,1.5-2c-0.1-0.4-0.7,0.1-0.9,0.4
		c-0.4-0.4,0.9-1.5,1.2-2.2c0.9,0.1,0.7-0.6,1.6-1.2c-0.4-0.9,1.3-2.2,1.3-3.5c-0.6,0.1-0.1,0.6-0.9,0.4c0.6-0.9,1.8-1.2,2.2-2.2
		c0.4,0.3-1.2,1.5-0.3,1.5c-2.3,3.4-3.7,6.4-5.6,9.9c-0.1,0-0.3-0.1-0.1-0.3c-0.3,0.3-0.4,0.6-0.9,0.6c0,1-1,2.2-1.6,2.9
		C110.1,112.5,110.2,111.1,111.5,109.5z M109.2,108.3 M109.6,109.6c-0.1,0-0.3,0-0.4,0c0-0.1,0.3-0.1,0.4-0.4
		C109.8,109.2,109.6,109.5,109.6,109.6z M111.5,77.7c-1,0.1-1.6-0.4-2.2,0.6C109.9,78.6,111.1,78.3,111.5,77.7z M109.4,107.6
		 M111.1,121c-0.3-1.5,2.2-2.6,1.3-3.9c-1,2-2.3,3.1-2.9,5.1C110.2,122.2,110.5,121.1,111.1,121z M109.6,107 M109.6,116.6
		c0-0.3,0.4-0.3,0.4-0.7c0.3,0,0.3-0.1,0.6-0.1C110.4,116.2,110.2,116.6,109.6,116.6z M109.8,108.9 M111.4,111.8
		c-0.1,0.7-0.7,1.6-1.3,2.3c-0.4-0.4,1.2-1.6,0.6-2.2C110.8,111.8,111.3,111.8,111.4,111.8z M110.1,108.4c-0.3-0.3,0.4-0.9,1-0.9
		C111,108.1,110.5,108.1,110.1,108.4z M110.2,108.9 M110.4,107 M110.8,115.5 M111,106.5 M112.1,126.8c-0.1,0-0.3,0-0.4,0
		c0.1,0.7-0.6,0.9-0.6,1.6C111.8,128.3,112,127.6,112.1,126.8z M111.5,106.2c-0.1-0.1,0-0.4-0.1-0.7
		C111.8,105.5,112,106,111.5,106.2z M111.8,109 M112,104.6c-0.4-0.1,0.4-0.3,0.3-0.7C112.7,104.1,112,104.5,112,104.6z M115.5,98.2
		c0.4,0.4-1.6,1.9-0.9,2.5c-0.4,0.1-0.6,0.7-0.9,1.3c-0.4,0.4-1.5,0.4-1.8,1.2c-0.3-0.7,0.6-1.2,1-1.9c0.4,0.3-0.3,0.6-0.3,1
		c1.3-1,1.8-2.8,2.5-4.1c0.6-0.7,1.3-1.3,1.6-2.5C117.1,96.2,116.1,97.9,115.5,98.2z M112.3,76.1c0,0,0-0.1,0-0.3
		c-0.1,0-0.1,0-0.3,0c0,0.1,0,0.3,0,0.3C112.1,76.1,112.1,76.1,112.3,76.1z M112.6,104.1c0-0.1,0-0.3,0-0.4
		C113.2,103.5,113,104.3,112.6,104.1z M112.7,103.3c0-0.3,0.1-0.4,0.4-0.4C113,103,113,103.5,112.7,103.3z M112.7,123.8 M114,77.6
		c-0.4-0.1-0.7-0.1-0.9,0.1C113.6,77.7,113.7,78.2,114,77.6z M113.3,105.1 M113.6,113.1c0,0.3-0.3,0.6,0,0.4
		C113.9,113.3,113.7,113.3,113.6,113.1z M113.6,105.7c0.1-0.1,0.1-0.3,0.4-0.6C114.3,105.1,114,106,113.6,105.7z M113.7,123.9
		c0-0.3,0.3-0.7,0.6-0.7C114.2,123.6,114.3,123.9,113.7,123.9z M113.9,74.1c0.3,0,0.6,0.1,0.6-0.1c0.1,0,0.1,0,0.3,0
		c0,0,0-0.1,0.1-0.3c-0.3,0-0.4,0.1-0.4,0.3C114.2,73.9,114.2,73.7,113.9,74.1z M114.6,70c-0.1,0-0.3,0-0.4,0c0,0,0-0.1,0-0.3
		C114.5,69.7,114.6,69.7,114.6,70z M114.2,101.6 M114.2,104.6 M114.5,111.8c0,0,0.1-0.1,0.1-0.3c-0.1,0-0.1,0-0.3,0
		c0,0.1-0.1,0.3-0.1,0.3C114.3,111.8,114.3,111.8,114.5,111.8z M114.8,122c0.4,0.3-0.1,1-0.3,1.2h-0.1
		C114.3,122.8,114.6,122.5,114.8,122z M114.5,104.1c-0.1-0.6,0.7-1.3,0.9-1.8C116.1,102.6,114.8,103.3,114.5,104.1z M116.7,77.6
		c-0.7-0.4-1.6,0.1-2,0.6C115.3,78,116.2,78.2,116.7,77.6z M115.2,100.5c0,0.1,0,0.3,0,0.3c-0.1,0-0.1,0-0.3,0c0,0,0-0.1,0-0.3
		C115.1,100.5,115.1,100.5,115.2,100.5z M115.1,107.4 M115.2,110.6c0.1,0,0.3,0,0.4,0c0-0.1,0-0.3,0-0.4c-0.1,0-0.1,0-0.3,0
		c0,0.1,0,0.1-0.1,0.1C115.2,110.5,115.2,110.6,115.2,110.6z M115.2,121.7 M115.3,106.8 M115.5,99.5c-0.3-0.4,0.9-0.9,1-1.6
		C117.1,98.1,116.1,99.4,115.5,99.5z M115.5,100.5 M118.4,75.8c-0.1,0-0.3-0.1-0.4-0.3c-0.7,0.7-2-0.1-2.3,0.9
		C116.4,76.6,117.7,76.3,118.4,75.8z M116.1,95.3c-0.1-0.1,0.3-0.3,0.3-0.4C116.7,95,116.2,95.1,116.1,95.3z M116.1,70
		c0.1-0.4,0.4-0.3,0.9-0.4C116.8,70,116.5,70,116.1,70z M117,98.6c-0.1,0-0.1,0.1-0.1,0.1c-0.1,0,0-0.3,0.1-0.4
		C117.2,98.4,117.1,98.5,117,98.6z M117.4,70.6c0,0.1-0.1,0.1-0.3,0.1C117.1,70.6,117.2,70.6,117.4,70.6z M117.1,95.4 M117.1,97.3
		c0.4-0.1,0.6-1.3,1.3-1.3C117.8,96.5,117.8,97.3,117.1,97.3z M117.4,96.3 M117.5,94.1c0-0.1,0.1-0.3,0.4-0.3
		C118,94,117.8,94.1,117.5,94.1z M117.7,80.1c0.1,0,0.3,0,0.4-0.1C118,79.9,117.8,79.9,117.7,80.1z M117.7,97.8 M117.7,100.5
		c0,0,0-0.1,0-0.3c0.1,0,0.1,0,0.3-0.1C118.3,100.1,118,100.8,117.7,100.5z M118,101c-0.1,0.3-0.1,0-0.3,0
		C117.7,100.8,118,100.8,118,101z M117.8,70.6c1-0.3,2.6-0.6,3.5-0.4C120,70.6,118.7,70.7,117.8,70.6z M117.8,92.1
		c0.3-0.3,0.3-0.4,0.6-0.7C119,91.5,118.3,92.1,117.8,92.1z M118.6,92.9c-0.3,0-0.4,0-0.7,0c0.3-0.6,0.9-0.7,1.3-1.5
		C119.7,91.8,118.6,92.4,118.6,92.9z M117.8,93.4 M117.8,98.8 M118.3,97.9c0.3-1.2,1-1.9,1.6-2.8C119.6,95.7,119.3,97.6,118.3,97.9z
		 M118.3,95.6 M119.1,101.7c-0.4,0.6-0.9,0.7-0.9,1.5C118.9,103.2,119.1,102,119.1,101.7z M118.3,109.8 M119,69.6
		c-0.1,0.1-0.4,0.1-0.6,0.1C118.6,69.6,118.9,69.6,119,69.6z M119.6,77.6c1-0.1,1.6-0.9,2.3-1.6c-0.1,0-0.3-0.1-0.6-0.1
		c-0.4,0.9-1.6,0.7-2.6,1C118.4,77.9,119.9,76.7,119.6,77.6z M119.4,91.2 M122.4,96.6c-1.2,1-1.3,2-2.2,3.8c-0.1,0-0.3,0-0.4-0.1
		c0.1,0.4-0.3,0.4-0.3,0.9c0.3,0,0.6,0,0.6,0.1c-0.3,0.1-0.6,1.2-0.1,1.2c1.6-2.3,2.8-4.4,4.2-7.3c0-0.1-0.1-0.3-0.3-0.4
		c0.6-0.3,0.6-1,0.7-1.6c-0.9,1.2-1.9,2.3-2.6,3.4C122.1,96.5,122.4,96.5,122.4,96.6z M119.4,109.8 M119.9,94.1 M119.9,98.5
		 M120.6,99.4c-0.1,0-0.3,0-0.4,0c-0.1,0.1-0.1,0.3-0.1,0.4C120.5,100,120.3,99.5,120.6,99.4z M120,105.5 M120.3,96.2
		c-0.1-0.1,0.1-0.9,0.4-0.7C120.9,95.9,120.3,95.7,120.3,96.2z M120.3,109.9 M121.2,88.1c-0.3-0.3-0.6,0-0.7,0.4
		C120.9,88.6,121,88.6,121.2,88.1z M121.3,79.8c0-0.1,0.1-0.3,0.1-0.4c-0.3,0-0.6,0.3-0.7,0.4C120.9,79.8,121.2,79.8,121.3,79.8z
		 M120.8,91.5c0-0.4,0.3-0.3,0.4-0.6C121.5,90.9,121,91.6,120.8,91.5z M121,93.8c0,0.3-0.1,0-0.3,0C120.8,93.7,121,93.7,121,93.8z
		 M120.8,95.1c0,0,0.1-0.1,0.1-0.3c0.1,0,0.1,0,0.1-0.1C121.3,94.7,120.9,95.4,120.8,95.1z M121.3,69.3c-0.1,0-0.3,0-0.4,0
		c0,0,0-0.1,0-0.3C121.2,69,121.3,69,121.3,69.3z M122.4,88.6c-0.6-0.1-1.2,1.2-1.3,0.3c0.4,0,0.4-0.1,0.7-0.6c0.1,0,0,0.1,0.1,0.1
		c0.3,0,0.1-0.6,0.6-0.7h0.1C122.5,88,122.5,88.3,122.4,88.6z M121.3,84.5 M122.6,76.7c-0.1,0.6-0.9,0.4-1,0.9
		c0.4,0.4,1.5-0.6,1.5-0.9c0.6,0.4,2.6,0.3,3.1-0.4c-1.2-0.1-2.9-0.6-4.7,0.4C121.6,77.2,122.2,76.7,122.6,76.7z M121.5,84
		c0-0.4,0.4-0.3,0.6-0.7C122.4,83.4,122.1,84.3,121.5,84z M121.5,94c0.3-0.4,0.3-1.6,1-1.9C122.4,92.9,122.4,93.1,121.5,94z
		 M121.6,107.4 M121.9,89.6 M122.6,104.9c-0.1,0.4-0.4,0.4-0.4,0.7C122.9,106,123.1,104.9,122.6,104.9z M122.9,91.6
		c-0.1,0.1-0.3,0.1-0.4,0.1C122.6,91.6,122.8,91.6,122.9,91.6z M122.8,87.5c0,0.1,0,0.1-0.1,0.1C122.6,87.7,122.6,87.5,122.8,87.5z
		 M122.6,96.2c0.1,0,0.3-0.1,0.3-0.3C122.8,95.9,122.8,96,122.6,96.2z M122.6,96.2 M122.8,87.5 M122.9,95.9 M122.9,104.2
		 M123.4,86.8c0,0.1-0.1,0.1-0.3,0.1C123.1,86.8,123.2,86.8,123.4,86.8z M123.2,86.2c0.1-0.1,0.3-0.3,0.6-0.3
		C123.8,86.1,123.5,86.2,123.2,86.2z M129.7,72.3c-2,0.3-4.7,0-6.1,0.9C125.7,72.6,127.9,73.2,129.7,72.3z M124.8,98.5
		c-0.9,0.1-1.5,1.5-1.2,2C124.4,99.8,124.4,99.2,124.8,98.5z M124.1,83.7 M124.5,103.8c0,0.1,0,0.3,0,0.3c-0.1,0-0.1,0-0.3,0
		c0,0,0-0.1,0-0.3C124.4,103.8,124.4,103.8,124.5,103.8z M124.8,75.7c1.2,0,1.3,0,2.5,0c0.3-0.6,0.7-0.6,1.2-1.2
		c-1.2-0.3-2.9,0.4-3.8,0.7C124.7,75.4,124.8,75.4,124.8,75.7z M125.9,97.2c0.3-0.9,0.9-1.2,1-1.8c-0.1,0-0.3,0-0.4,0
		c-0.7,0.9-0.9,1.6-1.6,1.9C125.1,97.9,125.4,97,125.9,97.2z M125,84.3 M125.3,85.2 M125.9,84.8c-0.3,0,0.1-0.6,0.4-0.4
		C126.3,84.5,125.9,84.6,125.9,84.8z M126.9,85.1c-0.3,0.6-1.2,1.3-1,1.8C126.3,86.4,127.2,85.6,126.9,85.1z M127.8,69.6
		c-0.4,0.7-1.8,0.6-1.6,0C126.6,69.9,127,69.6,127.8,69.6z M126.6,97c0.1,0.3-0.3,1,0,1C126.6,97.6,127.3,97,126.6,97z M126.6,76.6
		 M126.9,69c-0.4-0.1,0.3-0.6,0.6-0.4C127.3,68.8,127,68.7,126.9,69z M126.9,79.1 M127.2,81.5 M129.5,82c-1.2,0.1-1.5,1.2-2.2,1.9
		C128.3,83.6,128.8,82.6,129.5,82z M127.5,97.3 M128.2,69.6 M128.5,94.8c0.1-0.3,0.4-0.6,0.7-0.9c0.4,0.3-1,1.8-1,0.9
		C128.3,94.8,128.3,94.8,128.5,94.8z M128.2,96 M128.6,81.3C128.5,81.4,128.6,81.4,128.6,81.3c0.3,0.1,0.4,0,0.6-0.3
		c0.1,0,0-0.1,0,0C128.9,81,128.8,81.1,128.6,81.3z M129.8,82.9c-0.4,0-0.4,0.3-0.6,0.6C129.7,83.4,129.8,83.3,129.8,82.9z
		 M129.8,92.1c0-0.1-0.1-0.3-0.4-0.3c0.1,0.4-0.3,0.7,0,0.9C129.4,92.4,130,92.5,129.8,92.1z M130.2,78.2c-0.3,0.1-0.9-0.1-0.9,0.1
		c0,0.1,0.1,0.1,0,0.4C129.8,78.9,130,78.5,130.2,78.2z M129.5,87.7 M129.7,69.7c0.1-0.3,0.3-0.3,0.6-0.3
		C130.2,69.6,130,69.7,129.7,69.7z M130,91 M131.6,80.8c-0.3,0-0.4,0-0.6-0.1c-0.1,0.4-1,1.3-0.6,1.6
		C130.7,81.5,131.3,81.4,131.6,80.8z M131,78.3c-0.3,0-0.6,0.1-0.6,0.3C130.7,78.6,130.8,78.5,131,78.3z M130.7,83 M131,82.6
		 M131.3,88.7 M131.6,75c0.1,0,0.4,0,0.4-0.1C131.9,74.8,131.6,74.8,131.6,75z M132.6,74.7c0.1-0.1,0.1-0.3,0.1-0.6
		c-0.3,0.1-0.7,0.1-0.9,0.4C132.1,74.5,132.1,74.8,132.6,74.7z M133,65.8 M134.5,63.4 M136.2,61.4c0,0.3-0.6,0.6-0.1,0.7
		C136.2,62.1,136.5,61.4,136.2,61.4z M137.7,63.6 M138.6,58c-0.1,0-0.1-0.1-0.4-0.1c-0.4,0.3-0.4,0.9-0.3,1
		C138,58.6,138.4,58.5,138.6,58z M138.6,62.6c0.3,0.1,0.6-0.4,0.6,0c-0.1,0.4-0.6,0.6-0.6,1c1.6-0.6,1.6-2.2,2.6-3.7
		c-0.1,0-0.1-0.1-0.4-0.1c-0.3,1-1.2,1.9-1.6,1.8C139,62,138.6,62.1,138.6,62.6z M138.7,64c0.1,0,0.3,0,0.3-0.1
		C138.9,63.9,138.7,63.9,138.7,64z M139,77.3c0,0.4,0.1,0.4,0.6,0.4C139.6,77.5,139.5,77.3,139,77.3z M140.2,79.4
		c0.1,0,0.3,0,0.3-0.1C140.3,79.2,140.2,79.2,140.2,79.4z M141.2,73.9c0,0.6,0.9,0.1,0.4,0.9c-0.4,0.3-0.4,0-0.9,0
		c-0.3,0.3-0.7,0.9-0.4,1.2c1.3-0.4,3.7-1,5-1c0,0.7-0.9,0.1-0.9,0.7c1.2,0,2.2-0.4,2.8-1.3c-0.9,0.6-1.2-0.3-2.2,0.1
		c-0.3-0.3,0.1-0.4,0.1-0.9c-0.9,0-1.5,0.1-2.2,0c-0.3,0.3-0.1,0.6-0.4,0.7C142.1,74.2,141.9,73.5,141.2,73.9z M142.7,79.5
		c0.9-1.2,1.5-0.3,2.9-0.4C144.9,79.6,143.7,79.5,142.7,79.5z M143.4,72.9 M143.8,74.4c0-0.4,0.9-0.4,0.7,0.1
		C144,74.7,144.1,74.4,143.8,74.4z M144.4,73.2 M145.7,73.2c-0.1,0-0.1,0-0.3,0c-0.1,0.1-0.3,0.1-0.3,0.3
		C145.4,73.5,145.7,73.5,145.7,73.2z M145.3,44.9 M145.6,73.9 M145.6,75 M146,73.5c0.1,0,0.3,0,0.3-0.1
		C146.2,73.4,146,73.4,146,73.5z M146.5,78.9c0,0.1-0.1,0.1-0.3,0.1C146.2,78.9,146.3,78.9,146.5,78.9z M146.3,68.4 M148.7,78.8
		c-0.4,0.4-1.2,0.6-1.8,0.1C147.3,78.6,148.1,78.9,148.7,78.8z M148.1,75.1c-0.3-0.1-0.6-0.1-1,0.3
		C147.5,75.4,147.9,75.6,148.1,75.1z M147.9,68.2 M149.2,73.8c0.1-0.1,0.1-0.4-0.1-0.4c0,0.1,0,0.3,0,0.3
		C149.2,73.7,149.1,73.8,149.2,73.8z M149.5,76.3c0.1,0,0.3,0,0.4-0.1C149.8,76.1,149.7,76.1,149.5,76.3z M149.7,73.8
		c1.5-0.4,3.2,0,3.8-0.4c-0.7-0.7-1.8-0.1-3.1-0.3C150.4,73.7,149.8,73.2,149.7,73.8z M150.7,67.8c-0.1,0.6-0.6,0.3-0.9,0.3
		c0,0,0-0.1,0.1-0.3C150.3,67.8,150.4,67.8,150.7,67.8z M152.5,67.2c0,0.1,0,0.3,0,0.3c-0.1,0-0.1,0-0.3,0c0,0,0-0.1,0-0.3
		C152.3,67.2,152.3,67.2,152.5,67.2z M152.5,74.8c0,0,0-0.1,0.1-0.3c-0.1,0-0.1,0-0.3,0c-0.1,0.1-0.1,0.3-0.1,0.3
		C152.3,74.8,152.3,74.8,152.5,74.8z M153.6,68.2c-0.6,0.7,1.2,0.6,1.3,0.1C154.4,68.5,154.1,68.2,153.6,68.2z M155.8,74.2
		c-0.4-0.3-0.9-0.1-1.3-0.1C154.1,75,155.7,74.8,155.8,74.2z M154.9,68 M155.1,67.1 M156.6,66.9 M158.9,72.8c-0.3,0-0.6,0.1-0.6,0.3
		C158.6,73.1,158.7,72.9,158.9,72.8z M162.4,71.9c-0.1-0.3-0.6,0-0.9,0.1C161.2,72.9,162.3,72.6,162.4,71.9z M163.7,25.6
		 M166.9,71.5"/>
	<path class="st0" d="M137.4,109.6 M213.8,65.9c0.1,0.4,1.5,0.1,1,1.2c0.3,0,0.3-0.1,0.4-0.4c0.4,0.3-0.3,1.6,0.4,2
		c-0.7,1.6-2.8,1.6-3.8,3.1c-0.4-0.3-0.7,0-1.3,0.1c-0.3,0,0,0.1,0,0.3c-4.4,2-10.2,2-15.3,3.1c-1.8,2.5-2.2,6.3-4.5,10.2
		c-1.3,4.1-3.5,9.1-5.3,13.6c-0.4,1.9-1,3.8-2.2,5.7c-1.2,4.7-3.4,9.2-4.2,13.7c-0.7,1.3-0.9,3.2-1.2,4.7c-0.7,0.6-1,0.9-0.9,1.9
		c-0.6-0.1-0.3-0.9-0.6-1c0.9-2,0.7-5.3,2.2-8c-0.9-0.1-0.6,1.3-1,1.9c-0.7-0.4,0.6-1.5,0.1-2c0.4-0.1,0.6-0.3,1-0.3
		c-0.1-0.7,0.6-1.6-0.1-1.8c0.9-0.6,0.4-1.5-0.3-0.7c0.1-0.3,0.1-0.9,0.7-0.6c-0.3-1.2,0.7-3.1,1.6-4.4c-0.3-0.7,0.1-2.2,0.6-3.2
		c0.6-1.9,2.2-3.9,2.8-5.8c0.3-0.7,0.1-1.5,0.7-2.2c-0.7-0.1-0.4,1.2-1.2,1.2c0.1-0.6,0.3-0.9,0.1-1.2c-0.7,0.9-0.9,1.3-0.6,2.3
		c-0.3-0.1-0.3-0.3-0.4-0.3c0.4,0.3-0.7,1.2-0.1,1.5c-0.7,0.9-0.6,2.5-1.3,3.2c-0.3-0.7,0.7-1,0.1-1.6c-0.7,0.6-0.6,1.5-0.9,2.6
		c-1.2,2.5-1.9,4.2-2.9,7c0.1,0.1,0.4-0.1,0.6-0.3c0.3,0.1-0.1,0.6,0,0.9c-1.8,1.3-0.7,3.5-2.2,5.1c-0.4,3.4-1.6,8.5-2.8,12.6
		c0,0.7-0.1,1.9-0.7,2.6c-0.3-0.1-0.6-0.3-0.3-0.6c-0.7-0.1-0.3-0.7-0.7-1c0.9-2.6,1.6-6.1,2-8.9c0.3-0.1,0.6-0.6,0.9-0.7
		c0-0.3-0.3-0.3-0.4-0.1c2-6.7,4.1-13.2,5.6-19.1c-0.7,0.6-0.3,2.2-1.8,2.5c0.4-0.9,1.2-2.5,2-3.4c-0.3-1.2,0.9-2.5,1.6-3.2
		c-0.1-0.6-0.6,0.1-0.9,0.1c1.3-2.3,1.3-5.3,3.1-7.5c0-1.9,0.6-2.9,1.3-4.1c0-0.3-0.4-0.1-0.1-0.4c0.9-0.9,0.9-2.8,1-3.8
		c-0.6,0.9-1,2-1,3.2c-0.6,0.4-0.9,1.5-1,2.5c-1.5,2.2-1.3,4.5-2.8,6.9c-0.6,2-0.9,4.4-2.8,6.3c0.1,0.3,0.4,0.6,0.3,0.9
		c-1.8,1.8-1.3,3.8-2.8,6.1c0,0.1,0.3,0.1,0.3,0.3c-1.2,3.9-2.9,7-3.4,10.5c-0.3,0-0.3,0.4-0.7,0.4c0.6,0.4-0.1,1.6,0.3,2
		c-0.7,1.5-0.6,2.8-1.5,4.7c-0.1,0.9,0.6,2.6-0.7,3.2c-0.1,1,0.1,1.6-0.3,2.6c0.1,0.3,0.7-0.3,0.7,0.1c-0.1,1.3-1.2,1.6-0.9,2.5
		c-0.6-0.1-0.7,0.3-1.2,0.4c-0.4,0.6,0,0.4-0.1,1c-0.7,0-0.7,0.1-0.9-0.3c-0.6,0.3-1,0.6-1.3,1.5h-0.1c0,0.1,0.1,0,0.1,0
		c0.1-0.1,0.3,0,0.4,0.1c-0.1,0.4-0.6,0.6-0.9,0.7c0.3-0.6-0.3-0.4-0.1-0.6c-1.2,0.7-3.1,0.6-3.5-0.6c0.3-0.3,0.4-0.4,0.6-0.4
		c-0.1-0.4-0.3-0.6-0.6-0.6c0.3-0.7,0.6-1.6,1.3-1.9c0-0.6-0.1-1-0.6-1.3c0.7-0.3,1-1,1.6-1c0-0.6,0-0.9-0.1-1.2
		c-0.3,0-0.6-0.1-0.6,0.1c-0.1-0.4,0.1-0.7-0.3-1c0.4-0.4,0.7-0.9,1.2-1.3c-0.1-0.6-0.3,0-0.7,0c0.3-1.2,1.2-1,1.3-2.2
		c-0.6-0.1-0.4,0.6-1,0.6c0.4-0.6,1-2,0.4-2.3c0.4-0.6,0.4-0.9,0.6-1.5c0.7-0.3,0.9-1.3,1.5-1.5c0-0.3-0.3-0.3-0.4-0.3
		c0.1-0.4,0.6-0.3,0.7-0.4c-0.1-0.4,0-0.9-0.3-1c0-0.3,0.4-0.1,0.6-0.4c-0.4-1.3,0.7-2.5,1.2-4.2c-0.9,0.1-1.5,0.3-1.8,1
		c-0.1-0.4,0.1-1.5,0.6-1.9c0.7,0.1-0.4,0.6,0,0.9c0.9-0.3,0.4-1.6,1.5-1.8c-0.1-0.3-0.7-0.1-0.7-0.4c2.3-2.8,2.9-4.1,3.8-7.5
		c0.3-0.3,0-0.3-0.4-0.1c0.6-0.6,1-1.2,1.8-1.2c0,0.1-0.1,0.4,0,0.6c0.7-1.6,1.2-3.8,2.3-4.8c0-1.6,1.3-2.5,2.3-3.4
		c-0.1-0.6-0.1-0.7-0.3-1.2c-0.7,0,0,0.6-0.3,1c-0.3-0.1-0.3,0.1-0.4,0.4c-1-1.6,1.2-2.9,1.3-4.4c0.4-0.1,0.3,0.4,0.7,0.1
		c-0.1-0.4-0.1-0.6-0.6-0.6c0.6-1.9,0.9-2.8,1.2-4.1c-0.6-0.3-0.6,0.4-0.9,0.7c-0.4-0.4,0.4-0.9-0.1-1c0.3-0.4,1.3-1.2,0.7-1.5
		c0.6-0.7,0.9-2.2,2-2.5c0.1-0.3-0.1-0.3-0.4-0.1c1.8-1.9,2.8-4.4,2.3-6c0.6,0.6,0.3-0.3,1-0.4c0-0.3-0.1-0.3,0-0.4
		c-0.6-0.3-0.4,0.6-1,0.6c0.4-1.2,1-2,1-2.8c-0.1,0.4-0.7,0-1.6,0.7c-0.3,0.4,0,0.4,0,0.9c0.6-0.3,0.1-1,1-0.9
		c-0.3,0.7-1.5,1.9-0.9,2.3c-0.1,0.3-0.4,0.4-0.6,0.7c0,0.1,0.1-0.1,0.4,0c0,0.1-0.3,0.3-0.6,0.3c0.1,0.1,0.3,0.9,0.6,0.6
		c0,0.3-1.5,1-0.9,1.5c-0.1,0.3-0.4,0.4-0.7,0.9c-0.1,0.4,0.4,1.9-0.7,1.9c0-0.4,0.4-0.6,0.4-0.9c-0.1-0.3-0.3-0.4-0.6-0.4
		c-0.4,0.1-0.1,1-0.9,1.2c-0.3,0.3,0.3,0.1,0.3,0.4c-0.6,0.6-0.4,1.2-0.6,1.9c-0.1,0.1-0.6,0.1-0.6,0.7c-0.6,0-0.4-0.4-0.9-0.4
		c1-2.2,1.3-3.5,2.9-5.6c-0.1-0.6-0.6,0.3-0.9,0.1c0.4-0.4,0.7-0.7,1.2-1c-0.1-0.3-0.1,0-0.4,0c0.6-1.8,1.2-2.8,2-4.4
		c-3.8,0.4-6.4,0.6-9.8,1.9c-1.6-0.7-3.5,1.5-4.5,3.4c-0.6-1,1.2-1.6,1.5-2.6c-0.3-0.4-0.7,0.3-1.3,0.3c-5.7,6.9-11.3,14.3-17.1,21
		c0,0.1,0,0.4,0,0.6c-0.3,0.4-0.4-0.3-0.3-0.7c-0.6,0.1,0,0.7-0.9,0.9c0,0.3-0.1,0.4,0,0.6c-0.1,0.3-0.3-0.3-0.7,0.1
		c-0.1,0.4,0.6,0.1,0.3,0.7c-0.4-0.1-0.3,0.6-0.9,0.9c-0.3-0.6-1.6,0.9-0.9,1.3c-0.9,0.3-1,1.6-1.8,1.3c-0.1,2-3.1,2.9-3.2,5.3
		c0.3,0,0.3-0.3,0.6-0.1c-1.2,1.2-2.2,2.5-3.9,2.3c0-1.2-0.3-2.2-1-2.8c0.3-0.9-0.1-0.7,0-1.3c0.7-0.1-0.1-1.2,0.7-1.8
		c0.1,0,0.1,0.3,0,0.4c0.4,0,0.3-0.4,0.7-0.4c0-0.6-0.6-0.3-1-0.1c0.4-0.3,0.1-0.4,0.1-0.7c0.9,0,0.9-1.5,1.8-1.5c0,0.1,0,0.3,0,0.4
		c-0.1-0.1-0.3,0-0.4,0.1c0.1,0,0.4-0.1,0.4-0.1c0.1,0,0.1,0,0.3,0c0-1.2,0.7-2.2,1.5-2.9c0.1-0.6-0.3-0.4-0.1-1
		c0.6-0.1-0.1,0.3,0.4,0.4c0.1,0,0.1-0.1,0.3-0.1c0-0.4,0-0.6-0.4-0.4c1.9-2.8,3.1-4.7,5.6-6.7c0-1.6,2.8-2.9,2.2-5
		c-1.2,1-1.6,2.2-2.9,3.5c0.1,0.1,0.4,0.3,0.1,0.9c-1.6,0.6-2.5,2-3.4,3.8c-0.1,0-0.3,0.1-0.6,0.1c0.1,0.6-1.2,1.3-1.2,1.9
		c-0.3,0.4,0-0.4-0.4-0.3c-0.4,0.1-0.1,0.4-0.4,0.9c-0.1-0.1,0-0.7,0.1-1c0.1-0.3,0.6-0.3,0.7-0.4c0.1-0.6-0.1-0.1-0.4-0.1
		c1.2-1.5,1.6-2,2.3-3.7c0.6-0.4,1.6-1.2,1.5-1.9c1.3-0.7,1.9-2.2,2.6-3.4c2.3-1.5,3.4-4.7,5.7-6.1c0-0.7,0.4-1.2,0.7-1.5
		c-1.6,0.1-3.1,0.7-4.2,1.2c-0.9-0.3-0.6-1.6-1.8-1.2c-0.1-0.7-0.1-1.3-0.7-1.5c0.3-0.3,0.6-0.4,0.3-0.7c-0.3-0.1-0.3,0.1-0.3,0.4
		c-0.9-1-0.6-2.9-1.8-3.5c0.1-0.7,0.7-0.7,1.3-0.6c0.3-0.6,0-0.6-0.4-0.4c0.6-0.3,0.3-0.3,0.3-0.7c0.1,0,0.3,0.1,0.6,0.3
		c0.3-0.4-0.1-0.4,0-0.9c3.4,0,6.7-0.9,10.7-1.6c-0.1,0.3-0.4,0.3-0.7,0.4c0.9,0.1,2.5-0.4,3.8-0.7c0,0.3-0.6,0.1-0.6,0.7
		c0.4,0,0.3-0.3,0.7-0.1c3.1-5,6.4-9.2,10.1-13.4c0.1-0.4-0.1-0.4,0.1-0.7c0.7-0.3,0.4-1.5,1.3-1.3c0.4-0.6,0.3-0.3,0.3-0.7
		c3.7-3.9,6.6-9.2,10.1-12.7c0.7-1.5,2.2-3.4,3.5-4.4c1.2-2.2,3.2-3.5,4.7-5.1c1.3-0.7,2.2-1,3.4-1.5c0.3,0.3,1,0.3,1.5,0.1
		c-0.1-2.3,2.2-2.5,3.9-2.6c2.9-0.4,5.4,0.6,7.5,0.9c0.7,0.6,2.2,0.4,2.5,1.3c0,0.4-0.3,0.4-0.3,0.9c-0.1,0.6,0.4,0.7,0.4,1.3
		c-0.9,1.3-0.4,2-1.6,3.1c0.4,1.3-1.9,4.1-1.9,5.8c-0.7,0.6-1.2,1.8-1.5,2.9c0,0.3,0.4-0.3,0.6,0.1c-1.2,0.9-1.3,2.5-2,3.2
		c-0.1,0.1,0.3,0,0.4,0.1c-1.3,1.5-1.6,3.5-2.3,5.7c-1.8,3.4-1.9,6.7-3.9,10.2c3.9,0.6,8.8-1,12.4,0c0.4,0-0.3-0.6,0.4-0.4
		c0.4,0.1,0.1,0.4-0.1,0.7c0,0.1,0.9,0.1,0.9,0C212.5,65.6,213.3,65.6,213.8,65.9z M138.3,106.4c-0.1-0.1-0.1,0-0.1,0.1
		c-0.1-0.1-0.1-0.3-0.1-0.4C138.4,106,138.3,106.1,138.3,106.4z M138.7,109.6c0.1-0.3,0-0.4-0.1-0.4c-0.1-0.3-0.1,0,0,0
		C138.6,109.3,138.6,109.5,138.7,109.6z M138.6,108.4 M139.2,108.4c-0.1,0.1-0.4,0.1-0.4,0.4C139,108.9,139.5,108.4,139.2,108.4z
		 M138.9,107.6c0.1,0,0.1,0.1,0.4,0C139.2,107.4,139,107.3,138.9,107.6z M139,109.2 M139.2,106.8 M139.3,107.3
		c0.1-0.1,0.1,0.1,0.1,0C139.5,107.1,139.3,107,139.3,107.3z M139.5,109.2c0-0.3,0-0.6-0.1-0.4c0,0,0,0.1,0,0.3
		C139.5,109,139.5,109,139.5,109.2z M139.5,108.1c0-0.1,0.1-0.1,0.1-0.1C139.5,108,139.5,108,139.5,108.1z M139.9,105.7
		c0.1-0.1,0.1,0.1,0.3,0C140.2,105.5,139.9,105.4,139.9,105.7z M140,106.2c0.1-0.1,0.3-0.1,0.3-0.1C140.2,106.1,140,106.1,140,106.2
		z M140,111.8c0.1-0.1,0.3,0,0.4-0.1C140.3,111.7,140.2,111.5,140,111.8z M140.2,105.2c0.4-0.1,0.6-0.1,0.6-0.1
		C140.6,105.1,140.5,105.1,140.2,105.2z M140.9,104.1c0.1,0,0.1,0,0.3,0c-0.1,0.4,0.6-0.1,0,0c0-0.3-0.1-0.3-0.3-0.3
		c0-0.1,0.1-0.3,0.1-0.3c-0.1,0-0.1,0-0.3,0c0,0.1,0,0.1,0.1,0.3C140.9,103.8,140.9,103.9,140.9,104.1z M141.5,104.8
		c0-0.1,0-0.3,0-0.3c-0.1,0-0.1,0-0.3,0C141.2,104.6,141.4,104.6,141.5,104.8C141.7,104.9,141.7,104.6,141.5,104.8z M141.4,103
		 M142.8,102.3c0.1-0.6,0.1-1.2,0-1.5c0.1,0.6-1.2,1.6-0.9,1.9C141.9,102.2,142.7,102.6,142.8,102.3z M142.8,103c-0.1,0-0.4,0-0.6,0
		c0,0.1,0,0.3-0.1,0.4C142.4,103.5,142.5,103,142.8,103z M142.5,102.7c0.3-0.1,0.4-0.1,0.4-0.1C142.8,102.6,142.7,102.6,142.5,102.7
		z M142.5,104.6c0.1-0.1,0.3-0.1,0.3-0.1C142.7,104.5,142.5,104.5,142.5,104.6z M142.8,110.6c-0.4-0.1,0.1-0.9,0.6-0.6
		C143.3,110.3,142.8,110.3,142.8,110.6z M143,106.5 M143.1,99.8 M143.4,100.5c0-0.1,0-0.3,0-0.3c-0.1,0-0.1,0-0.3,0c0,0,0,0.1,0,0.3
		C143.3,100.5,143.3,100.5,143.4,100.5z M144.7,98.9c0.1-0.4-0.3-0.4-0.3-0.6c-0.3,0.4-0.1,0.6-0.7,1.3
		C144.4,99.8,144,98.8,144.7,98.9z M143.8,101c-0.4,0.3,0.3,0.3,0.3,0.1C144.1,101,144.1,100.8,143.8,101z M144,100 M144.1,108.6
		 M144.6,109.3c-0.4-0.1,0-0.6,0-0.6C144.9,108.7,144.6,109.2,144.6,109.3z M145.7,97.8 M146,97.2 M146.5,92.5 M146.6,97
		 M147.1,97.9c0,0.3-0.4,0.1-0.4,0.6C146.9,98.5,147.3,97.9,147.1,97.9z M147.8,78.3c0-0.3,0.1-0.6-0.3-0.4c0,0,0,0.1,0,0.3
		C147.6,78.2,147.6,78.2,147.8,78.3z M148.5,78.6c0.1-0.6-0.1-0.6-0.6-0.4c0,0.1-0.3,0.3-0.3,0.4C147.8,78.8,147.9,78.5,148.5,78.6z
		 M148.8,94.7c0-0.4-0.1-0.9-0.4-1c-0.1,0.1-0.4,0.1-0.3,0.7C148.5,94.4,148.4,94.4,148.8,94.7z M148.1,77.7 M148.5,77.7
		c0.6,0,0.4-0.6,1-0.1c0-0.4-0.3-0.3-0.3-0.4C149,77.2,148.5,77.3,148.5,77.7C148.2,77.7,148.4,77.9,148.5,77.7z M148.4,104.1
		c0-0.3,0.1-0.4,0.4-0.3C148.7,103.9,148.7,104.1,148.4,104.1z M148.8,76.9 M149.5,92.1c0,0.3-0.7,1.3-0.4,1.6
		C149.7,93.1,150.1,92.4,149.5,92.1z M149.1,80.2c0.1-0.1,0.3-0.1,0.3-0.1C149.2,80.1,149.1,80.1,149.1,80.2z M149.1,101.7
		 M149.5,94.3c0.1-0.1,0.1,0.1,0.3,0C149.8,94.1,149.5,94,149.5,94.3z M149.8,100.5c-0.1,0-0.3,0-0.3,0.1
		C149.7,100.5,149.8,100.5,149.8,100.5z M150,80.7c0-0.1,0-0.3,0-0.3c-0.1,0-0.1,0-0.3,0c0,0,0,0.1,0,0.3
		C149.8,80.7,149.8,80.7,150,80.7z M149.7,91.3c0.1-0.1,0.3-0.1,0.3-0.1C149.8,91.2,149.7,91.2,149.7,91.3z M149.8,88 M151.6,90.5
		c-0.9,0.1-1.5,1-1.5,1.9C150.9,91.9,151.1,91.3,151.6,90.5z M153.2,87c0,0,0,0,0,0.1c0.1-0.3,0.9-0.4,0.4-0.6c0,0-0.1,0-0.3,0.1
		c0-0.1,0.1-0.1,0.1-0.3c-0.1,0-0.1,0-0.3,0c0.9-1.8,2.5-3.2,3.1-4.5c-0.6,0.6-1.8,1.3-1.8,2.2c-2.2,1.2-2.8,3.5-4.2,5.7
		c1.3-0.7,1.8-2.2,3.1-3.1C153.3,86.7,153.2,86.8,153.2,87z M151.9,100c-0.4,0.6-0.7,0.9-1,1.5c-0.3-0.4,0.6-0.9,0.6-1.5
		C151.6,100,151.7,100,151.9,100z M153.3,89.1c-0.7,0-1.3,0.4-1.8,1.2C152.5,90,152.9,89.4,153.3,89.1z M153.3,98.1
		c-0.4,0.6-1,0.9-1.3,1.6c-0.6-0.6,1-1.3,1-1.9C153,97.9,153.2,97.9,153.3,98.1z M152.3,91c0.1-0.1,0.3-0.1,0.3-0.1
		C152.5,90.9,152.3,90.9,152.3,91z M153,87.5 M155.1,95.6c-0.3,0.9-1,1.3-1.5,2.2c-0.1,0-0.4,0-0.6,0
		C153.6,96.6,154.4,96.2,155.1,95.6z M153.5,88.4 M153.5,97.2 M153.8,77.9 M154.1,87c0.1-0.1,0.3-0.1,0.3-0.1
		C154.2,86.8,154.1,86.8,154.1,87z M154.4,86.4c0.7,0,0.7-1.3,1.5-0.7c0.9-2.3,3.2-4.1,4.2-6c-0.3-0.1-0.4,0.1-0.9,0.1
		C157.3,82.3,156,83.7,154.4,86.4z M155.1,73.4c0.1-0.1,0.1-0.3,0.1-0.3c-0.1,0-0.1,0-0.3,0c0,0,0,0.1-0.1,0.3
		C154.9,73.4,154.9,73.4,155.1,73.4z M156.3,85.8c-0.1,0-0.3,0-0.4,0c-0.1,0.7-1.6,1.5-0.7,2C155.4,86.7,156.3,86.7,156.3,85.8z
		 M156.6,94.1c-0.3,0.3-0.6,1-1.2,1.2c0.1-0.6,0.7-0.6,0.7-1.2C156.3,94.1,156.4,94.1,156.6,94.1z M156.1,81.4
		c0.1-0.3,0-0.4-0.3-0.3c0,0-0.1,0.1-0.1,0.3C155.8,81.4,156,81.4,156.1,81.4z M157,72.5c0,0.1-0.4,0-0.4,0.4
		C156.8,72.9,157.3,72.5,157,72.5z M157.7,80.1c-0.3,0.1-0.9,0.3-0.7,1C157.6,81,157.9,80.4,157.7,80.1z M157,91.9 M157.3,91.5
		 M157.4,93.2c-0.4-0.4,0.3-1,0.6-1.3C158.6,91.9,157.4,92.8,157.4,93.2z M157.4,83.9 M158,90.8c0,0,0,0.1,0,0.3c-0.1,0-0.1,0-0.3,0
		c0-0.1,0-0.3,0-0.3C157.9,90.8,157.9,90.8,158,90.8z M158.2,83.9c0.1-0.3,0.3-0.6-0.1-0.4c0,0,0,0.1-0.1,0.3
		C158,83.7,158,83.7,158.2,83.9z M158.5,90.6 M158.5,91.5c0-0.3,0.3-0.1,0.3-0.3C159.2,91.2,158.5,91.8,158.5,91.5z M158.6,72.8
		c-0.3,0.1,0.6-0.1,0.4-0.1C158.9,72.5,158.6,72.6,158.6,72.8z M159,71.9c0,0,0,0.1-0.1,0.3c-0.1,0-0.1,0-0.3,0
		c0.1-0.1,0.1-0.3,0.1-0.3C158.9,71.9,158.9,71.9,159,71.9z M158.9,82.3c0-0.1,0.1-0.3,0.1-0.3c-0.1,0-0.1,0-0.3,0
		c0,0-0.1,0.1-0.1,0.3C158.7,82.3,158.7,82.3,158.9,82.3z M158.9,90.9c0-0.3,0.1-0.4,0.4-0.3C159.2,90.8,159.2,90.9,158.9,90.9z
		 M159.3,85.2c-0.4,0.1-0.1,0.4,0.3,0.6C159.6,85.3,159.8,85.1,159.3,85.2z M159.2,73.7 M159.3,72c0.3-0.4,0.6-0.6,1-0.4
		C160.1,71.9,159.6,71.9,159.3,72z M159.9,72.8c-0.1,0.1-0.4,0-0.4,0.4C159.8,73.2,160.2,72.8,159.9,72.8z M159.5,88.9
		c0-0.4,0.3-0.4,0.4-0.6C160.2,88.1,159.9,89,159.5,88.9z M159.5,90.2 M160.2,72.3c-0.3,0-0.6-0.1-0.4,0.3
		C160.1,72.6,160.1,72.5,160.2,72.3z M160.1,89.6c0,0,0,0.1,0,0.3c-0.1,0-0.1,0-0.3,0c0-0.1,0-0.3,0-0.3
		C159.9,89.6,159.9,89.6,160.1,89.6z M160.1,81.4c0.1-0.1,0.3-0.1,0.3-0.1C160.2,81.3,160.1,81.3,160.1,81.4z M160.1,89.3
		c0.6-1.5,1.8-1.8,2.2-2.9C162.5,87.2,160.6,88.4,160.1,89.3z M160.5,72.9 M160.9,72.8 M161.1,82.6 M162.7,132.8c0,0,0,0.1,0,0.3
		c-0.1,0-0.1,0-0.3,0c0-0.1,0-0.3,0-0.3C162.5,132.8,162.5,132.8,162.7,132.8z M162.7,86.2c-0.4-0.9,1-1.2,1.2-2
		C164.4,84.6,163,85.6,162.7,86.2z M162.8,130.9c-0.1-0.1-0.1-0.6-0.1-0.7C163.4,130.1,163.1,130.8,162.8,130.9z M164.3,124.4
		c0,0.1-0.3,0-0.3,0.3c-0.3-0.1-0.3-0.7,0.3-0.6C164.3,124.2,164.3,124.2,164.3,124.4z M163.9,70.1 M163.9,129.6c0.1,0,0.1,0,0.3,0
		c0-0.1,0-0.3,0.1-0.1c0-0.1,0.1-0.3,0.1-0.3c-0.1,0-0.1,0-0.3,0c0,0-0.1,0.1-0.3,0.1C163.9,129.3,163.9,129.5,163.9,129.6z
		 M164.3,126.8c0,0,0,0.1,0,0.3c-0.1,0-0.1,0-0.3,0c0-0.1,0-0.3,0-0.3C164.2,126.8,164.2,126.8,164.3,126.8z M164.6,69.3
		c0-0.1,0-0.3,0-0.3c-0.1,0-0.1,0-0.3,0c0,0,0,0.1,0,0.3C164.4,69.3,164.4,69.3,164.6,69.3z M164.4,84c-0.3-0.4,0.6-0.9,0.6-1.2
		C165.6,83,164.6,83.4,164.4,84z M164.6,71c0.1-0.1,0.1,0.1,0.3,0C164.9,70.9,164.6,70.7,164.6,71z M164.6,72.3
		c0.1-0.1,0.3-0.1,0.3-0.1C164.7,72.2,164.6,72.2,164.6,72.3z M165.8,71.2c-0.7,0,0.4-0.4-0.1-0.6c-0.3,0.3-0.9,1-0.7,1.5
		C165.2,71.6,165.6,71.6,165.8,71.2z M165,72.6c0.1-0.1,0.4,0,0.4-0.1C165.3,72.5,165,72.3,165,72.6z M166.2,69.3
		c-0.1,0.4-0.6,0.4-0.7,1.2C165.9,70.3,166.8,69.3,166.2,69.3z M166.1,119.5c-0.1,0-0.3,0-0.3,0.1
		C165.9,119.5,166.1,119.5,166.1,119.5z M166.1,120.6c0,0,0,0.1,0,0.3c-0.1,0-0.1,0-0.3,0c0-0.1,0-0.3,0-0.3
		C165.9,120.6,165.9,120.6,166.1,120.6z M166.5,118.8c-0.4,0.1-0.4-0.3-0.6-0.3C166.3,118.1,166.9,118.4,166.5,118.8z M166.2,71
		c-0.3,0.4,0.6,0.4,0.6,0C166.6,71,166.3,71,166.2,71z M166.3,68.8 M167.4,70.3c0.1-0.4-0.1-0.6-0.4-0.6c-0.1,0.3-0.6,0.6-0.6,1.2
		C166.8,70.9,166.8,70.1,167.4,70.3z M166.9,117.1c-0.3,0,0-0.3-0.6-0.1c0.3-0.6,0.7-1,1.2-1C167.2,116.5,166.8,116.3,166.9,117.1z
		 M166.8,117.9c-0.3,0.4-0.6-0.4-0.1-0.6C167.1,117.2,166.3,117.9,166.8,117.9z M166.8,69.7c0.1-0.1,0.1-0.3,0.1-0.3
		c-0.1,0-0.1,0-0.3,0c0,0,0,0.1-0.1,0.3C166.6,69.7,166.6,69.7,166.8,69.7z M166.6,81.3c-0.3-0.1,0.1-0.6,0.1-0.6
		C167.1,80.7,166.8,81.1,166.6,81.3z M166.6,66.6 M167.1,67.4c-0.1,0.1-0.1,0.4-0.3,0.9C167.2,68.2,167.7,67.2,167.1,67.4z
		 M167.8,69c-0.3,0-0.6-0.1-0.4,0.3C167.7,69.3,167.7,69.1,167.8,69z M167.4,65.8c0.1-0.1,0.3-0.1,0.3-0.1
		C167.5,65.6,167.4,65.6,167.4,65.8z M175,104.2c-0.7,0.1-0.6,0.4-1,1.3c0.4,0,0.1,0.6,0.3,1c-1.3,2.5-1.8,5.1-2.5,8.3
		c-0.3,0-0.4,0.3-0.9,0.3c0,0.7-0.1,0.9,0.1,1.6c-0.4,0.3-0.7,0.4-1,0.9c0.7,0.4-0.7,2,0.1,2.5c-0.3,0-0.7,0.1-0.7,0.4
		c0.6,0.3-0.1,0.9,0.3,1.3c-0.1,0.3-0.6,0.3-0.7,0.9c0.3,0.9-0.4,1.9-0.3,3.1c-1.8,0.7-0.1,2.3-0.3,4.1c0.3-0.9,0.9-1.8,1.2-3.1
		c-1-0.9,0.3-2.6,1-4.2c-0.3-0.3-0.3-1.5,0.4-1.8c-0.6-0.6,0.1-1.2-0.1-1.9c0.7-0.4,1.3-1.8,1.2-2.3c0.6-0.6,0.6-1.2,1.2-1.8
		c-0.7-0.3-0.4-0.9,0.1-1.5c-0.4-0.3-0.9,0.6-1,0.3c0.7-1.8,1.2-2.6,1-3.9c1.5-1.3,1-3.8,2.3-5.3c-0.3,0-0.3-0.1-0.3-0.3
		c0.6-1.5,1.3-3.5,2-5.1c-0.1-0.3,0-0.6,0.1-0.9c0.1-0.3,0.9-1.6,0.3-1.6c-0.1,0.3-0.7,0.1-0.7,0.7
		C176.6,99.8,175.3,101.9,175,104.2z M168.2,66.6c0-0.1,0-0.3,0-0.3c-0.1,0-0.1,0-0.3,0c0,0,0,0.1,0,0.3
		C168.1,66.6,168.1,66.6,168.2,66.6z M168,78.2 M168.2,110.2 M168.4,65.9c0.1,0,0.1,0,0.3,0c0-0.1,0-0.3,0.1-0.1c0-0.1,0-0.3,0-0.3
		c-0.1,0-0.1,0-0.3,0c0,0,0,0.1-0.1,0.1C168.4,65.6,168.4,65.8,168.4,65.9z M168.5,111.9 M169.3,108.1c-0.7,0-0.4-0.6-0.3-0.9
		C169.4,107.3,169,107.7,169.3,108.1z M169.6,109.3c-0.7-0.4,0-0.9,0.1-1.6C170.1,107.9,169.9,108.9,169.6,109.3z M169.3,109.8
		c0-0.4,0.1-0.3,0.4-0.3C169.6,109.6,169.6,109.8,169.3,109.8z M169.4,132.7 M169.6,106.4 M170.1,106.8c0.1-0.4,0.3-0.9,0.7-0.7
		C170.6,106.1,170.6,106.8,170.1,106.8z M170.9,106c-0.4-0.1-0.6-0.6-0.3-1C171.3,104.8,171,105.4,170.9,106z M170.6,66.2
		 M171.2,104.6c-0.1,0-0.4,0-0.6,0c0-0.6,0.4-0.4,0.4-0.9C171.6,103.6,171.2,104.2,171.2,104.6z M170.9,77.3 M170.9,103.5
		 M171.3,103.3 M172.2,100.3c-0.3,0-0.3-0.1-0.4-0.1c0.1-0.3,0.4-0.3,0.4-0.4C172.3,99.7,172.5,100,172.2,100.3z M171.9,103.8
		c-0.1-0.4,1-0.9,0.4-1.2c0-0.6,0.4-1,1-0.9C172.8,102.6,172.8,103.2,171.9,103.8z M172,101.7c0-0.6,0-1.2,0.6-1
		C172,101.1,172.8,101.6,172,101.7z M172.5,72 M172.5,103.8c0.3-0.4,0.4-0.6,0.7-0.4C173.1,103.3,172.9,103.8,172.5,103.8z
		 M172.8,99.5 M173.2,98.9c0,0,0,0.1,0,0.3c-0.1,0-0.1,0-0.3,0c0-0.1,0-0.3,0-0.3C173.1,98.9,173.1,98.9,173.2,98.9z M173.4,97.5
		c-0.4,0.1-0.1-0.6-0.1-0.7C173.8,96.6,173.5,97.5,173.4,97.5z M173.2,128.2c0.1-0.1,0.1,0.1,0.3,0
		C173.5,128,173.2,127.9,173.2,128.2z M173.8,54.4c0,0,0,0.1-0.1,0.3c-0.1,0-0.1,0-0.3,0c0.1-0.1,0.1-0.3,0.1-0.3
		C173.7,54.4,173.7,54.4,173.8,54.4z M173.4,71.9 M174.4,60.7c-0.6,0-1.3,1-0.9,1.2C173.9,61.2,174.7,60.9,174.4,60.7z M175.7,69.4
		c-0.1,0.6-0.9,0.7-0.9,1.5c2.6-0.7,5.4-0.7,8.6-1.2c0.1-0.3,0.1-0.6,0.4-0.4c0.1-0.6-0.1-0.6,0.1-1c-0.4-0.1-1,0.3-1.2,0
		c0.6,0,0.7-0.3,1.2-0.3c1.3-3.7,2.9-6.1,3.1-9.6c0.7-1.8,1.9-4.1,1.9-5.7c-1.2,1.2-2,2.6-3.4,4.4c-0.6,0.9-1.8,2.2-2.3,2
		c-0.1,0.4,0.1,0.4,0.1,0.7c-0.9,0.6-1.8,2.3-3.1,3.2c-0.1,1-1.5,2.3-2.2,3.2c0.1-0.9,1.5-1.8,0.7-2c-0.4,0-0.1,0.3-0.1,0.6
		c-1.5,0.4-2.5,1.9-3.5,3.2c0.7-0.1,0.1,0.6-0.1,0.9c0.1-0.3,0.1-0.4,0.3-0.6c-1,0.4-1,1.2-1.8,1.9c0.6,0-0.3,0.7,0.1,1
		c0-0.3,0.3-0.1,0.6-0.1c0.1-0.4,0.4-0.7,0.7-1c-0.3-0.3-0.7,0.3-0.6,0c0.3-0.3,0.3-0.6,0.4-0.6c0.3-0.1,0.3,0,0.4,0.1
		c0.6-0.7,1-2,2-2.5c-0.3,0.7-1,1.3-1.5,2c0.4-0.3,0.3-0.1,0.9,0C176.6,69.3,176.1,69.3,175.7,69.4z M175.4,97.5
		c-0.1,0.7-0.7,1-1.2,1.6c-0.3,0-0.3-0.3-0.4-0.3c0.9-0.6,0.7-1,1.2-1.5C175.3,97.2,175.3,97.3,175.4,97.5z M176.3,91.8
		c-0.4-0.1-0.3-0.3-0.9,0c0.7,1.3,0.1,2.6-0.7,4.5c0-0.4-0.3-0.7-0.6-0.9c0.9-0.9,0.3-2,1.2-2.6c0-0.4-0.4-0.6,0-1.2
		c0.1-0.3,0.7-0.6,0.9-0.1c0.4-0.4-0.3-0.4,0-1C176.6,90.6,176.7,91,176.3,91.8z M175,60.9c-0.1,0.3-0.6,0.9,0,0.9
		C175.3,61.5,175.3,60.9,175,60.9z M174.7,58.9 M174.7,76.4 M175.1,76.3 M176.3,63c-0.6,0-0.7,0.3-1,0.9
		C175.8,63.7,176.1,63.3,176.3,63z M175.6,126.6c-0.7-1.3,0.3-2.9,0.6-4.5C176.9,123,175.4,125.2,175.6,126.6z M175.7,90.6
		c0,0,0,0.1,0,0.3c-0.1,0-0.1,0-0.3,0c0-0.1,0-0.3,0-0.3C175.6,90.6,175.6,90.6,175.7,90.6z M175.6,59.3c0.1,0,0.1,0,0.3,0
		c0-0.1,0-0.3,0.1-0.1c0-0.1,0-0.3,0-0.3c-0.1,0-0.1,0-0.3,0c0,0,0,0.1-0.1,0.1C175.6,59,175.6,59.2,175.6,59.3z M175.6,90.2
		c0.7-1.3,1.6-3.2,2.2-3.7C178.3,87.4,177,89.7,175.6,90.2z M176.1,96.7c0,0.1-0.1,0.4-0.1,0.7c-0.3-0.1-0.6-0.3-0.3-0.7
		C175.8,96.7,176,96.7,176.1,96.7z M176.3,97.8c-0.1,0.3-0.3,0.6-0.6,1.2C176.1,98.8,176.7,97.8,176.3,97.8z M176.4,53.3
		c-0.3-0.1-0.6,0-0.6,0.4C176.1,53.6,176.4,53.6,176.4,53.3z M177.3,92.2c-0.1,0.6-0.6,0.9-0.9,1.6c-0.1,0-0.4,0-0.6,0
		c0.6-0.6,0.7-1.3,1-1.8C177.3,91.9,177.2,92.1,177.3,92.2z M176.3,69.7 M176.4,67.2c-0.4-0.1,0.4-1,0.9-1
		C177.2,66.6,176.6,66.5,176.4,67.2z M176.6,70.1c0.3-0.4,0.9-0.6,1-0.9C177.9,69.4,177.2,70.3,176.6,70.1z M176.7,57.7
		c0.1,0,0.1,0,0.1,0.1c0.1,0,0.1,0,0.3,0c0-0.1,0-0.3,0.1-0.1c0-0.1,0-0.3,0-0.3c-0.1-0.1-0.1-0.1-0.1-0.1c-0.1,0-0.1,0-0.3,0
		c0,0,0,0.1-0.1,0.1C176.7,57.4,176.7,57.6,176.7,57.7z M177.2,69.1c-0.1,0-0.1,0-0.3,0C176.9,69,177.2,68.8,177.2,69.1z
		 M177.2,119.8c-0.6-0.3,0.1-0.7-0.1-1C177.6,118.7,177,119.4,177.2,119.8z M178.6,89.1c-0.9-0.6-0.7,1.2-1.6,1.2
		c-0.1-0.7,0.9-0.9,0.9-1.6c0.3-0.1,0.6,0,0.7-0.1C178.8,88.6,178.6,88.9,178.6,89.1z M177.5,69.1c0.4-0.6,0.9-0.1,1.5-0.6
		C179.1,69,177.9,69.3,177.5,69.1z M177.7,69.9c0.3-0.6,0.3-0.1,0.9-0.1C178.6,70,178,69.7,177.7,69.9z M177.9,115
		c0.1-0.3,0.4-0.4,0.4-0.9C178.9,114.1,178,115.2,177.9,115z M178.2,64.5 M179.2,94.1c-0.7-0.1-0.6,0.6-0.9,1
		C178.9,95.1,179.1,94.4,179.2,94.1z M178.9,57.7c0-0.1,0-0.3,0-0.3c-0.1,0-0.1,0-0.3,0c0,0,0,0.1,0,0.3
		C178.8,57.7,178.8,57.7,178.9,57.7z M178.6,69.4 M178.8,72.3c0.1,0,0.1,0,0.3,0c0-0.1,0.1-0.3,0.1-0.1c0.1-0.1,0.1-0.3,0.1-0.3
		c-0.1,0-0.1,0-0.3,0c0,0,0,0.1-0.1,0.1C178.9,72,178.8,72.2,178.8,72.3z M178.9,70c0.3-0.6,0.3-0.9,0.9-0.9
		C179.5,69.3,179.5,70,178.9,70z M179.6,68.7c-0.1,0.3-0.4,0.1-0.6,0.3c0-0.1,0.1-0.1,0.3-0.3C179.5,68.7,179.5,68.7,179.6,68.7z
		 M179.4,90.9c0-0.1,0.1-0.3,0.1-0.3c-0.1,0-0.1-0.1-0.3-0.1c0,0.1-0.1,0.1-0.1,0.3C179.2,90.8,179.2,90.8,179.4,90.9z M179.2,85.2
		c-0.3-0.1,0.1-0.3,0.1-0.4C179.6,84.8,179.4,84.9,179.2,85.2z M179.6,63.6c0.3,0,0.7-1,0.1-0.7C179.5,63.1,179.8,63.1,179.6,63.6
		C179.4,63.6,179.6,63.7,179.6,63.6z M180.5,69.1c-0.1,0-0.3-0.7-0.6-0.1c-0.3-0.4,1.9-0.9,1.9-0.3
		C181.4,68.4,180.8,68.5,180.5,69.1z M180.1,86.2 M180.7,99.8c-0.4,0.3-0.7,1.3-0.1,1.3C180.5,100.8,181.1,100,180.7,99.8z
		 M180.2,78.9 M180.7,89.6c-0.3,0.3,0.4,0.3,0.4,0.1C181,89.6,181.1,89.4,180.7,89.6z M180.7,78.3c0.1-0.1,0.3-0.1,0.3-0.1
		C180.8,78.2,180.7,78.2,180.7,78.3z M182.7,59.3c-1.6,0.4-0.7,1.8-1.9,2.8C182.1,61.7,181.7,60.2,182.7,59.3z M181.1,77
		c-0.1,0.1-0.1,0.3-0.1,0.4C181.4,77.6,181.5,76.7,181.1,77z M181.3,69 M181.3,81.7c0-0.4,0.3-0.6,0.4-0.4
		C181.5,81.3,181.7,81.7,181.3,81.7z M181.7,104.6c-0.3,0.1-0.4,0.6,0,0.6C182,104.9,181.8,104.6,181.7,104.6z M181.8,69
		c-0.1-0.6,0.6-0.1,0.7-0.4C183,68.7,182.1,69,181.8,69z M182.6,78.6 M182.9,45.7 M183,69.3c0-0.3,0.3-0.4,0.6-0.3
		C183.6,69.1,183.3,69.3,183,69.3z M183.4,68.7 M184.2,96.3c-0.1-0.3-0.6-0.3-0.6,0.3C183.9,96.6,184.2,96.5,184.2,96.3z
		 M184.3,69.6c0.1-0.1,0.3-0.1,0.3-0.1C184.5,69.4,184.3,69.4,184.3,69.6z M184.8,96.5c0.6-1.9,2.5-5,2.6-6.7
		c-1.2,1.3-1.3,3.4-2.9,4.8C185.1,94.7,183.7,96.3,184.8,96.5z M184.8,74.5C184.9,74.4,184.8,74.2,184.8,74.5
		C184.2,74.4,184.6,75,184.8,74.5z M184.5,68.5 M185.2,41.9c0.1-0.1,0.3-0.1,0.3-0.1C185.3,41.8,185.2,41.8,185.2,41.9z M185.5,82
		c0.7,0,0.6-0.6,0.7-1c0.1-0.1,0.3-0.1,0.3-0.1c-0.3-0.4-0.6,0-0.9,0.1C185.2,81.5,185.9,81.5,185.5,82z M186.7,79.9
		c-0.4-0.3-1,0.4-0.6,0.6C186.2,80.2,186.7,80.2,186.7,79.9z M188.4,87.1c-0.1,0-0.3,0-0.4,0c-0.3,0.4-0.9,2.2-0.3,2.5
		C187.8,88.4,188.4,87.8,188.4,87.1z M192.8,35.8c0.1-0.1,0.3-0.1,0.3-0.1C192.9,35.7,192.8,35.7,192.8,35.8z M196.3,72.2
		c-0.4,0.9-0.7,1.3-1,2.6c3.2-1.2,6.3-2.8,9.6-3.7c0-0.3-0.3-0.4,0-0.4c0.7,0,1-0.4,1.8-0.4c0.3-0.4,1.8-0.4,1.2-0.7
		c-1.5,0.3-2.5,0.6-3.8,1.3C201.3,70.6,198.8,71.9,196.3,72.2z M197.8,69.7c0,0.1,0,0.3-0.1,0.4C198.1,70.3,198.3,69.4,197.8,69.7z
		 M198.9,67.4c-0.6-0.1-0.9,0.1-1.2,0.6C198.5,67.7,198.8,68.2,198.9,67.4z M197.9,68.7 M199.5,66.5c-0.1-0.3-0.6,0-0.7,0.4
		C199.2,66.9,199.4,66.8,199.5,66.5z M199.4,50.6 M200.7,66.3c-0.4,0-0.9-0.1-1,0.3C199.8,66.9,200.4,66.3,200.7,66.3z M200.5,67.5
		c0.3-0.4-0.3-0.4-0.4-0.1c0.1,0,0.1,0,0.1,0.1C200.4,67.5,200.4,67.5,200.5,67.5z M201.6,66.3c0,0.3-0.6-0.1-0.6,0.4
		C201.3,66.9,202,66.3,201.6,66.3z M201.4,32 M201.6,70.9c0.1-0.1,0.3-0.1,0.3-0.1C201.7,70.7,201.6,70.7,201.6,70.9z M202.4,67.2
		c0-0.1,0-0.3-0.3-0.1c-0.1,0.1-0.3,0.3-0.3,0.6C202.3,67.7,202.4,67.5,202.4,67.2z M202.4,69.7 M202.6,66.3
		c0.3-0.1,0.4-0.1,0.4-0.1C202.9,66.2,202.7,66.2,202.6,66.3z M206.1,69.6c-1,0.3-1.8,0.3-2.5,0.7C204.3,70.4,205.4,70.1,206.1,69.6
		z M205.9,45.7 M206.1,65.6c0.1-0.1,0.7,0.1,0.7-0.1C206.5,65.5,206.2,65.2,206.1,65.6z M207.1,69.3c-0.4-0.1-0.4,0.1-0.7,0.1
		C206.1,70.1,207,69.6,207.1,69.3z M211.6,65.9c0-0.1,0-0.3,0-0.4c0.1,0,0.3,0,0.4,0c0,0.1-0.1,0.3-0.1,0.4
		C211.8,65.9,211.8,65.9,211.6,65.9z M213.8,65.9 M214.6,69.7c0.1-0.1,0.1-0.3,0.1-0.3c-0.1,0-0.1,0-0.3,0c0,0,0,0.1-0.1,0.3
		C214.4,69.7,214.4,69.7,214.6,69.7z M215.9,67.5c0,0,0,0.1,0,0.3c-0.1,0-0.1,0-0.3,0c0-0.1,0-0.3,0-0.3
		C215.7,67.5,215.7,67.5,215.9,67.5z"/>
</g>
<g>
	<path class="st0" d="M119.7,172.1c-5.8,4.2-10.4,9.5-14.4,14.3l-1.1-0.8c-4.8-13.3-8.5-20.4-17.7-26.9c0,7.3,0.8,14.9,2.1,22.3
		c1.9,0.2,4.3,0.4,5.9,0.6l-0.2,1.5c-4.7-0.3-9.4-0.5-14.2-0.5c-4.3,0-8.1,0.2-12.5,0.5l-0.2-1.5c2.1-0.4,4.4-0.6,6.5-0.9
		c1.2-7.4,1.9-17.1,1.9-24.1c0-7.7-0.7-16.2-2.1-23.1c-5.3-1.3-10-4.3-10-10c0-1.3,0.5-2.1,1.5-2.1c1,0,1.2,0.9,1.2,2
		c0,8.1,7.7,9.6,13.6,9.6c6.3,0,13.5-1.1,19.3-2.8c8.3,1.6,14.4,6.3,14.4,13.4c0,9.5-8.3,11.9-15.5,15.2c2.2,0.8,4.3,1.2,6.8,1.3
		c3.6,4.1,6.6,9.5,8.5,14.8c1.4-1.2,3.6-2.8,5.5-3.8L119.7,172.1z M92,158.4c6,0,10-3.6,10-10.3c0-6.7-5.3-12.4-11.8-14.7
		c-0.9,0.2-1.3,0.2-2.2,0.3c0,0-1.5,9.6-1.5,23.3C88.1,158.1,90,158.4,92,158.4z"/>
	<path class="st0" d="M149.4,183c-3.5-0.3-7.2-0.5-12.3-0.5c-4.8,0-11.3,0.2-15,0.5l-0.1-1.5c2-0.2,4.9-0.4,6.9-0.8
		c0.8-5.7,1.3-15.7,1.3-23.6c0-13.5-2.2-20.4-4.5-22.6c-1.5-1.4-2.9-1.8-5.6-1.8v-1.5c1.9,0.2,4.3,0.3,6.9,0.3c4.9,0,10-0.4,14-1.3
		c0,4.9,0.4,17.5,0.9,24.3h0.4c1.5-6.5,2.6-13.5,3-18.2c1.8-2.2,8.9-7,15.6-7c8.4,0,16.9,9.2,16.9,16.2c0,10.1-12.1,24.2-12.1,30.8
		c0,4.3,2,6.2,4.1,6.2c6.1,0,4.4-5.9,6.2-5.9c0.9,0,1.3,0.4,1.3,1.4c0,3.2-4.2,6-7.9,6c-8,0-13.8-5.1-13.8-13.6
		c0-10.8,11.3-23.6,11.3-34c0-3.1-1.3-5.4-4.9-5.4c-8.3,0-15,10.8-17.5,20.7c-1.5,5.7-2.2,11.5-2.2,17.5c0,3.6,0.2,7.4,0.8,11.3
		c2.1,0.4,4.8,0.7,6.5,0.9L149.4,183z"/>
	<path class="st0" d="M238.9,183.1c-4.6-0.6-7.9-1-14.2-1c-4.6,0-7.8,0.4-11.4,1l-0.3-1.5c2-0.5,3.5-0.7,5.6-1
		c0.2-4.8,0.3-12.8,0.3-17.6l-19.2-0.2c0.2,7.6,1.1,13.4,2.2,18c1.5,0.2,3.4,0.5,4.8,0.8l-0.2,1.5c-3.8-0.5-5.2-0.7-10.5-0.7
		c-4.5,0-7,0.2-10.6,0.7l-0.2-1.5c1.4-0.2,6.6-0.8,10.2-0.8c-4.9-3.9-9.1-11.5-9.1-21c0-12,7.1-22.6,19.6-26.1v-0.3
		c-6.8-0.3-18.1-2.1-18.1-5.6c0-1.4,1.2-2,2.2-2c1.5,0,0.8,1.8,2.2,3.1c2.2,2.1,13.5,3.6,22.3,3.6c11,0,18.3-0.2,22.5-1l0.2,1.5
		c-1.6,0.4-4.5,0.8-6.9,1c0,0-0.3,10-0.3,15.4c0,10.1,0.9,20.5,3.1,31.4c2.4,0.3,3.7,0.5,6.1,1L238.9,183.1z M218.9,161.1
		c-0.2-18.4,0-27.1-8.2-27.1c-8.5,0-11.1,12.7-11.1,27.1H218.9z"/>
</g>
<g class="st1">
	<path class="st0" d="M192.3,78.6h-47.2v147.1h-38.9V78.6H58.9V45.4h133.4V78.6z"/>
</g>
</svg>
