<?xml version="1.0" encoding="UTF-8"?>
<svg width="1200pt" height="1200pt" version="1.1" viewBox="0 0 1200 1200" xmlns="http://www.w3.org/2000/svg">
 <g fill="#002236">
  <path d="m456 834-153.6-141.6c-7.1992-6-15.602-9.6016-25.199-9.6016-9.6016 0-18 4.8008-24 12-10.801 12-12 30-3.6016 43.199l4.8008 7.1992c25.199 37.199 52.801 72 82.801 105.6l30 31.199c4.8008 4.8008 7.1992 10.801 6 16.801 0 6-2.3984 12-7.1992 16.801-4.8008 4.8008-10.801 6-16.801 6s-12-2.3984-16.801-7.1992l-26.398-28.801c-34.801-36-66-75.602-92.398-117.6l-2.3984-4.8008c-20.398-31.199-18-72 6-99.602 2.3984-2.3984 4.8008-4.8008 7.1992-7.1992l-63.602-120c-7.1992-13.199-22.801-22.801-38.398-21.602-12 0-22.801 6-30 14.398-7.1992 9.6016-10.801 20.398-9.6016 32.398l42 322.8c3.6016 30 19.199 57.602 43.199 76.801l123.6 99.602c7.1992 6 12 14.398 13.199 24l8.3984 67.199c1.1992 9.6016 8.3984 15.602 18 15.602h175.2c10.801 0 19.199-9.6016 18-20.398l-34.801-256.8c-4.7969-20.395-16.797-41.996-33.598-56.395z"/>
  <path d="m1108.8 530.4c-7.1992-9.6016-18-14.398-30-14.398-15.602-1.1992-31.199 8.3984-38.398 21.602l-63.602 120c2.3984 2.3984 4.8008 4.8008 7.1992 7.1992 24 27.602 26.398 68.398 6 99.602l-2.3984 3.5977c-27.602 42-58.801 80.398-92.398 117.6l-26.398 28.801c-4.8008 4.8008-9.6016 7.1992-16.801 7.1992-6 0-12-2.3984-16.801-6-4.8008-4.8008-7.1992-10.801-7.1992-16.801s2.3984-12 6-16.801l28.801-31.199c31.199-33.602 60-69.602 85.199-108l3.6016-6c8.3984-13.199 7.1992-31.199-3.6016-43.199-6-7.1992-15.602-10.801-24-12-9.6016 0-19.199 2.3984-25.199 9.6016l-154.8 142.8c-16.801 15.602-28.801 36-32.398 58.801l-34.801 256.8c-1.1992 10.801 7.1992 20.398 18 20.398h175.2c9.6016 0 16.801-7.1992 18-15.602l8.3984-67.199c1.1992-9.6016 6-18 13.199-24l123.6-99.602c24-19.199 39.602-46.801 43.199-76.801l42-322.8c2.4023-13.195-1.1992-25.195-9.5977-33.598z"/>
  <path d="m813.6 614.4c38.398-85.199 24-181.2-37.199-250.8l-49.199-56.398c-7.2031-8.3984-12.004-19.199-12.004-31.199v-183.6h15.602c16.801 0 31.199-14.398 31.199-31.199s-14.398-31.199-31.199-31.199h-261.6c-16.801 0-31.199 14.398-31.199 31.199s14.398 31.199 31.199 31.199h15.602v183.6c0 10.801-3.6016 21.602-10.801 30l-49.199 56.398c-61.199 69.602-75.602 166.8-37.199 250.8 38.398 85.199 120 138 213.6 138 92.398 1.1992 174-51.598 212.4-136.8zm-315.6-61.199c-19.199 0-34.801-15.602-34.801-34.801 0-19.199 15.602-34.801 34.801-34.801s34.801 15.602 34.801 34.801c0 19.203-15.602 34.801-34.801 34.801zm88.801 121.2c-19.199 0-34.801-15.602-34.801-34.801 0-19.199 15.602-34.801 34.801-34.801s34.801 15.602 34.801 34.801c0 19.203-15.602 34.801-34.801 34.801zm115.2-91.199c-19.199 0-34.801-15.602-34.801-34.801 0-19.199 15.602-34.801 34.801-34.801s34.801 15.602 34.801 34.801c0 19.203-15.602 34.801-34.801 34.801zm32.398-158.4c-52.801 19.199-106.8 7.1992-164.4-4.8008-32.398-7.1992-66-14.398-99.602-15.602l49.199-56.398c16.801-19.199 26.398-44.398 26.398-70.801l0.003906-184.8h108v43.199h-40.801c-16.801 0-31.199 14.398-31.199 31.199s14.398 31.199 31.199 31.199h40.801v43.199h-40.801c-16.801 0-31.199 14.398-31.199 31.199s14.398 31.199 31.199 31.199h43.199c3.6016 16.801 12 32.398 24 44.398l49.199 56.398c4.8008 4.8008 8.3984 10.801 13.199 16.801-2.3984 1.207-5.9961 2.4102-8.3984 3.6094z"/>
 </g>
</svg>
